<svg xmlns="http://www.w3.org/2000/svg" viewBox="0 0 168.86 51.4"><defs><style>.cls-1{fill:#fff;}</style></defs><g id="Capa_2" data-name="Capa 2"><g id="Landing"><path class="cls-1" d="M71.22,24.52H62.28c-.16.45-.33.93-.51,1.46s-.35,1-.51,1.53-.33,1-.49,1.4-.27.8-.36,1.09a2.88,2.88,0,0,1-1.1.2,1.67,1.67,0,0,1-1-.29,1,1,0,0,1-.41-.91,2,2,0,0,1,.1-.62c.06-.21.14-.44.23-.69l1.29-3.6q.78-2.2,1.7-4.69c.61-1.66,1.23-3.32,1.87-5s1.21-3.19,1.75-4.53a5,5,0,0,1,.8-.26,4.42,4.42,0,0,1,1.1-.14,4.23,4.23,0,0,1,1.28.2,1.14,1.14,0,0,1,.79.67c.53,1.29,1.11,2.77,1.72,4.42s1.23,3.36,1.85,5.09S73.64,23.29,74.2,25s1.08,3.2,1.52,4.56a2.11,2.11,0,0,1-.63.48,1.75,1.75,0,0,1-.83.19,1.44,1.44,0,0,1-1-.29,2.11,2.11,0,0,1-.57-.95ZM66.75,11.74c-.25.67-.53,1.43-.84,2.29l-1,2.69c-.33.93-.66,1.88-1,2.83s-.64,1.87-.93,2.74h7.51c-.34-1-.68-2-1-3l-1-2.92-.91-2.59c-.27-.79-.5-1.46-.68-2Z"/><path class="cls-1" d="M80.08,29.53a1.41,1.41,0,0,1-.42-1.07V9.71a2.64,2.64,0,0,1,.52-.15,3,3,0,0,1,.75-.09c1,0,1.47.42,1.47,1.24V27.59H92a1.5,1.5,0,0,1,.37,1.11,1.32,1.32,0,0,1-.3.9,1,1,0,0,1-.8.33H81.13A1.45,1.45,0,0,1,80.08,29.53Z"/><path class="cls-1" d="M110.19,11.88a1.18,1.18,0,0,1-.28.8,1.93,1.93,0,0,1-.65.5,13.73,13.73,0,0,0-2-1.14,7.42,7.42,0,0,0-3-.53,7.52,7.52,0,0,0-2.84.53,6.48,6.48,0,0,0-2.27,1.57,7.44,7.44,0,0,0-1.52,2.6A11.09,11.09,0,0,0,97,19.82a10.82,10.82,0,0,0,.54,3.6A7.18,7.18,0,0,0,99,26a6,6,0,0,0,2.29,1.55,8.05,8.05,0,0,0,3,.52,8.66,8.66,0,0,0,3-.48,8.52,8.52,0,0,0,2.15-1.15,1.71,1.71,0,0,1,.63.48,1.22,1.22,0,0,1,.3.82,1.58,1.58,0,0,1-.8,1.27,8,8,0,0,1-2.1.95,11.91,11.91,0,0,1-3.4.41,11.3,11.3,0,0,1-3.91-.66,8.64,8.64,0,0,1-3.12-2A9.31,9.31,0,0,1,95,24.42a12.63,12.63,0,0,1-.77-4.6A12.56,12.56,0,0,1,95,15.2a9.67,9.67,0,0,1,2.12-3.32,8.72,8.72,0,0,1,3.12-2A10.74,10.74,0,0,1,104,9.21a13.18,13.18,0,0,1,2.52.23,9,9,0,0,1,2,.62,3.88,3.88,0,0,1,1.26.87A1.42,1.42,0,0,1,110.19,11.88Z"/><path class="cls-1" d="M127,24.52H118c-.16.45-.33.93-.51,1.46s-.35,1-.51,1.53-.33,1-.49,1.4-.27.8-.36,1.09a2.88,2.88,0,0,1-1.1.2,1.67,1.67,0,0,1-1-.29,1,1,0,0,1-.41-.91,2,2,0,0,1,.1-.62c.06-.21.14-.44.23-.69l1.29-3.6q.78-2.2,1.7-4.69c.61-1.66,1.23-3.32,1.87-5s1.21-3.19,1.75-4.53a5,5,0,0,1,.8-.26,4.42,4.42,0,0,1,1.1-.14,4.29,4.29,0,0,1,1.29.2,1.14,1.14,0,0,1,.78.67c.53,1.29,1.11,2.77,1.72,4.42s1.23,3.36,1.85,5.09S129.4,23.29,130,25s1.07,3.2,1.51,4.56a2,2,0,0,1-.63.48,1.75,1.75,0,0,1-.83.19,1.44,1.44,0,0,1-1-.29,2.11,2.11,0,0,1-.57-.95Zm-4.47-12.78c-.25.67-.53,1.43-.84,2.29l-1,2.69c-.33.93-.66,1.88-1,2.83s-.64,1.87-.93,2.74h7.51c-.34-1-.68-2-1-3l-1-2.92-.91-2.59c-.27-.79-.5-1.46-.68-2Z"/><path class="cls-1" d="M147.73,24.52h-8.94c-.15.45-.32.93-.5,1.46l-.52,1.53c-.16.5-.32,1-.48,1.4s-.28.8-.37,1.09a2.84,2.84,0,0,1-1.1.2,1.66,1.66,0,0,1-.95-.29,1,1,0,0,1-.42-.91,2.29,2.29,0,0,1,.1-.62l.24-.69,1.28-3.6q.78-2.2,1.7-4.69l1.87-5q1-2.52,1.75-4.53a5.37,5.37,0,0,1,.8-.26,4.56,4.56,0,0,1,1.11-.14,4.23,4.23,0,0,1,1.28.2,1.18,1.18,0,0,1,.79.67c.53,1.29,1.1,2.77,1.71,4.42s1.23,3.36,1.86,5.09,1.21,3.44,1.78,5.12,1.07,3.2,1.52,4.56a2.11,2.11,0,0,1-.63.48,1.79,1.79,0,0,1-.84.19,1.48,1.48,0,0,1-1-.29,2.11,2.11,0,0,1-.56-.95Zm-4.47-12.78L142.43,14c-.31.86-.64,1.75-1,2.69s-.67,1.88-1,2.83-.65,1.87-.93,2.74H147c-.33-1-.68-2-1-3s-.7-2-1-2.92-.62-1.8-.9-2.59-.51-1.46-.68-2Z"/><path class="cls-1" d="M156.59,29.53a1.44,1.44,0,0,1-.41-1.07V9.71a2.72,2.72,0,0,1,.51-.15,3.1,3.1,0,0,1,.76-.09c1,0,1.46.42,1.46,1.24V27.59h9.58a1.5,1.5,0,0,1,.37,1.11,1.32,1.32,0,0,1-.3.9,1,1,0,0,1-.8.33H157.65A1.46,1.46,0,0,1,156.59,29.53Z"/><path class="cls-1" d="M60.16,43.38a.42.42,0,0,1-.18.35.55.55,0,0,1-.38.15.44.44,0,0,1-.27-.09.42.42,0,0,1-.19-.24l-.74-1.66h-4l-.74,1.66a.44.44,0,0,1-.2.24.46.46,0,0,1-.27.09.6.6,0,0,1-.4-.15.44.44,0,0,1-.17-.35.52.52,0,0,1,.06-.22l3.12-6.84A.62.62,0,0,1,56,36a.7.7,0,0,1,.36-.1.65.65,0,0,1,.36.1.53.53,0,0,1,.25.28l3.13,6.84A.52.52,0,0,1,60.16,43.38ZM54.76,41H58l-1.63-3.67Z"/><path class="cls-1" d="M68.63,39.8a.42.42,0,0,1,.13.33v2.59a1.08,1.08,0,0,1-.11.55.71.71,0,0,1-.41.26,5.23,5.23,0,0,1-1.06.28,7,7,0,0,1-1.2.1,4.18,4.18,0,0,1-2.06-.48,3.1,3.1,0,0,1-1.31-1.37,4.64,4.64,0,0,1-.46-2.15,4.58,4.58,0,0,1,.46-2.13,3.16,3.16,0,0,1,1.3-1.38,4,4,0,0,1,2-.48,4.42,4.42,0,0,1,1.43.22,3.24,3.24,0,0,1,1.13.66.55.55,0,0,1,.22.45.52.52,0,0,1-.11.33.31.31,0,0,1-.27.14.47.47,0,0,1-.17,0,1,1,0,0,1-.2-.11,4.1,4.1,0,0,0-1-.56,3,3,0,0,0-1-.16,2.4,2.4,0,0,0-1.93.78,3.43,3.43,0,0,0-.66,2.27,3.38,3.38,0,0,0,.68,2.3A2.51,2.51,0,0,0,66,43a5.46,5.46,0,0,0,1.71-.27V40.54H66.26a.51.51,0,0,1-.35-.12.4.4,0,0,1-.12-.31.42.42,0,0,1,.12-.32.51.51,0,0,1,.35-.12h2A.48.48,0,0,1,68.63,39.8Z"/><path class="cls-1" d="M78,43.42a.46.46,0,0,1-.16.34.59.59,0,0,1-.38.14.58.58,0,0,1-.5-.28l-1.48-2.3a1.53,1.53,0,0,0-.54-.56,1.55,1.55,0,0,0-.76-.17H73V43.3a.53.53,0,0,1-.57.58.58.58,0,0,1-.41-.16.57.57,0,0,1-.15-.42V36.56a.52.52,0,0,1,.56-.56h2.76a3,3,0,0,1,2,.58,2.09,2.09,0,0,1,.69,1.69,2.12,2.12,0,0,1-.53,1.49,2.42,2.42,0,0,1-1.48.72,1.55,1.55,0,0,1,.52.28,2.24,2.24,0,0,1,.45.56l1.15,1.79A.6.6,0,0,1,78,43.42Zm-3-3.75a2,2,0,0,0,1.28-.33,1.52,1.52,0,0,0,0-2.09A2.06,2.06,0,0,0,75,36.93H72.94v2.74Z"/><path class="cls-1" d="M82.18,43.42A3.31,3.31,0,0,1,80.92,42a4.7,4.7,0,0,1-.44-2.12,4.93,4.93,0,0,1,.43-2.14,3.25,3.25,0,0,1,1.26-1.38,4.14,4.14,0,0,1,3.87,0,3.13,3.13,0,0,1,1.26,1.38,5.35,5.35,0,0,1,0,4.25A3.15,3.15,0,0,1,86,43.42a3.68,3.68,0,0,1-1.94.49A3.61,3.61,0,0,1,82.18,43.42Zm3.75-1.24a3.47,3.47,0,0,0,.65-2.27,3.51,3.51,0,0,0-.64-2.27,2.25,2.25,0,0,0-1.84-.79,2.2,2.2,0,0,0-1.81.79,3.51,3.51,0,0,0-.65,2.27,3.53,3.53,0,0,0,.65,2.27,2.21,2.21,0,0,0,1.81.8A2.25,2.25,0,0,0,85.93,42.18Z"/><path class="cls-1" d="M90.78,43.72a.54.54,0,0,1-.16-.42V36.53a.57.57,0,0,1,.16-.42.53.53,0,0,1,.41-.16.6.6,0,0,1,.42.15.61.61,0,0,1,.15.43V43.3a.58.58,0,0,1-1,.42Z"/><path class="cls-1" d="M101.18,36.11a.6.6,0,0,1,.15.42V43.3a.6.6,0,0,1-.15.42.58.58,0,0,1-.4.16.52.52,0,0,1-.45-.23L96,37.92V43.3a.6.6,0,0,1-.15.42.54.54,0,0,1-.4.16.5.5,0,0,1-.38-.16.57.57,0,0,1-.15-.42V36.53a.57.57,0,0,1,.16-.42.51.51,0,0,1,.4-.16.5.5,0,0,1,.44.22l4.34,5.74V36.53a.6.6,0,0,1,.15-.42.47.47,0,0,1,.39-.16A.5.5,0,0,1,101.18,36.11Z"/><path class="cls-1" d="M104.63,43.67a.54.54,0,0,1-.15-.4V36.56A.52.52,0,0,1,105,36h2.18a4,4,0,0,1,2.93,1,3.87,3.87,0,0,1,1,2.89,3.87,3.87,0,0,1-1,2.89,4,4,0,0,1-2.93,1H105A.56.56,0,0,1,104.63,43.67Zm2.52-.8c1.92,0,2.88-1,2.88-3s-1-2.95-2.88-2.95h-1.53v5.91Z"/><path class="cls-1" d="M114.83,43.1a3.22,3.22,0,0,1-.81-2.38V36.53a.61.61,0,0,1,.16-.43.64.64,0,0,1,.82,0,.61.61,0,0,1,.15.43v4.26a2.33,2.33,0,0,0,.52,1.63,2.38,2.38,0,0,0,3.07,0,2.33,2.33,0,0,0,.52-1.63V36.53a.6.6,0,0,1,.15-.42.54.54,0,0,1,.41-.16.56.56,0,0,1,.41.15.57.57,0,0,1,.16.43v4.19a2.87,2.87,0,0,1-3.18,3.19A3.22,3.22,0,0,1,114.83,43.1Z"/><path class="cls-1" d="M124.46,43.68a3.16,3.16,0,0,1-1.21-.65.55.55,0,0,1-.21-.45.5.5,0,0,1,.11-.34.33.33,0,0,1,.26-.14.71.71,0,0,1,.38.15A3.74,3.74,0,0,0,126,43a2.41,2.41,0,0,0,1.37-.33,1.12,1.12,0,0,0,.47-1,.79.79,0,0,0-.44-.73,6.1,6.1,0,0,0-1.42-.47,8.38,8.38,0,0,1-1.53-.45,2.33,2.33,0,0,1-.94-.69,1.82,1.82,0,0,1-.34-1.12,2,2,0,0,1,.38-1.2,2.43,2.43,0,0,1,1-.82,3.68,3.68,0,0,1,1.52-.29,4.46,4.46,0,0,1,1.45.22,3.12,3.12,0,0,1,1.14.65.61.61,0,0,1,.22.46.52.52,0,0,1-.12.33.33.33,0,0,1-.27.14.69.69,0,0,1-.37-.14,3.76,3.76,0,0,0-1-.56,2.92,2.92,0,0,0-1.08-.17,2.17,2.17,0,0,0-1.33.35,1.11,1.11,0,0,0-.47,1,.89.89,0,0,0,.42.8,4.39,4.39,0,0,0,1.35.49,12.78,12.78,0,0,1,1.58.46,2.42,2.42,0,0,1,1,.66,1.57,1.57,0,0,1,.36,1.07,2,2,0,0,1-.37,1.18,2.37,2.37,0,0,1-1,.8,3.93,3.93,0,0,1-1.55.28A5.63,5.63,0,0,1,124.46,43.68Z"/><path class="cls-1" d="M133.62,43.72a.57.57,0,0,1-.16-.42V37h-2.22c-.35,0-.53-.16-.53-.48a.45.45,0,0,1,.14-.35.57.57,0,0,1,.39-.13h5.59a.57.57,0,0,1,.39.13.42.42,0,0,1,.14.35c0,.32-.18.48-.53.48h-2.22V43.3a.6.6,0,0,1-.15.42.63.63,0,0,1-.84,0Z"/><path class="cls-1" d="M145.83,43.42a.43.43,0,0,1-.16.34.58.58,0,0,1-.87-.14l-1.49-2.3a1.53,1.53,0,0,0-.54-.56,1.49,1.49,0,0,0-.75-.17h-1.26V43.3a.53.53,0,0,1-.56.58.57.57,0,0,1-.41-.16.57.57,0,0,1-.16-.42V36.56a.56.56,0,0,1,.15-.41.57.57,0,0,1,.42-.15H143a3,3,0,0,1,2,.58,2.42,2.42,0,0,1,.16,3.18,2.45,2.45,0,0,1-1.49.72,1.38,1.38,0,0,1,.52.28,2.26,2.26,0,0,1,.46.56l1.14,1.79A.52.52,0,0,1,145.83,43.42Zm-3-3.75a2.06,2.06,0,0,0,1.28-.33,1.31,1.31,0,0,0,.41-1.05,1.24,1.24,0,0,0-.41-1,2,2,0,0,0-1.28-.32h-2.08v2.74Z"/><path class="cls-1" d="M148.77,43.72a.57.57,0,0,1-.16-.42V36.53a.61.61,0,0,1,.16-.42.53.53,0,0,1,.41-.16.57.57,0,0,1,.42.15.61.61,0,0,1,.16.43V43.3a.57.57,0,0,1-.15.42.6.6,0,0,1-.43.16A.57.57,0,0,1,148.77,43.72Z"/><path class="cls-1" d="M159.86,43.38a.42.42,0,0,1-.18.35.55.55,0,0,1-.38.15.46.46,0,0,1-.27-.09.42.42,0,0,1-.19-.24l-.74-1.66h-4l-.74,1.66a.47.47,0,0,1-.19.24.51.51,0,0,1-.28.09.6.6,0,0,1-.4-.15.44.44,0,0,1-.17-.35.52.52,0,0,1,.06-.22l3.12-6.84a.62.62,0,0,1,.25-.28.7.7,0,0,1,.36-.1.65.65,0,0,1,.36.1.53.53,0,0,1,.25.28l3.13,6.84A.52.52,0,0,1,159.86,43.38Zm-5.4-2.4h3.24l-1.62-3.67Z"/><path class="cls-1" d="M162.52,43.68a.53.53,0,0,1-.15-.39V36.53a.57.57,0,0,1,.16-.42.53.53,0,0,1,.41-.16.58.58,0,0,1,.42.15.61.61,0,0,1,.15.43v6.34h3.37a.6.6,0,0,1,.4.12.45.45,0,0,1,.14.35.46.46,0,0,1-.14.36.6.6,0,0,1-.4.12h-3.95A.6.6,0,0,1,162.52,43.68Z"/><path class="cls-1" d="M51.25,25.32A14.49,14.49,0,0,0,46.38,21,13,13,0,0,0,34,21a15,15,0,0,0-1.52,1,5,5,0,0,1,0,1.44A12.76,12.76,0,0,1,34.54,22a11.8,11.8,0,0,1,11.3,0,13.31,13.31,0,0,1,3.85,3.18h-5a.57.57,0,0,0,0,1.13h5a13.3,13.3,0,0,1-2.81,2.55,12.12,12.12,0,0,1-4.07,1.77,9.55,9.55,0,0,0-.89-1.85,9.44,9.44,0,0,0-3-3,9.32,9.32,0,0,0,1.88-1.59,9.62,9.62,0,0,0,1.63-2.47.56.56,0,1,0-1-.48A8.81,8.81,0,0,1,40,23.34,8.17,8.17,0,0,1,38,25s0,0,0,0a8.34,8.34,0,0,1-4,1.11,9.2,9.2,0,0,1-2.38-.27,10,10,0,0,1-.59,1,10.59,10.59,0,0,0,3,.37,9.76,9.76,0,0,0,3.77-.88h0l.17.1s0,0,0,0A8.39,8.39,0,0,1,41,29.33a9.26,9.26,0,0,1,1.3,3.7c-.23.1-.48.19-.71.27a9.21,9.21,0,0,1-.9.25,11.06,11.06,0,0,0-2.08-2.87c-.3-.3-.63-.59-1-.86a9.59,9.59,0,0,0-1.06-.74.57.57,0,1,0-.6,1,10,10,0,0,1,1.82,1.45,10.16,10.16,0,0,1,2.57,4.32,11.21,11.21,0,0,1,.34,4.86,11.18,11.18,0,0,1-3,0A10.4,10.4,0,0,1,34.82,40a9.77,9.77,0,0,0,.08-1.62,9.36,9.36,0,0,0-1.27-4.51c-.11-.19-.22-.38-.34-.56a6.26,6.26,0,0,0,.55.34h0a9.35,9.35,0,0,0,4.71,1.28.57.57,0,0,0,0-1.14,8.38,8.38,0,0,1-7.12-4,9.06,9.06,0,0,1-.95-2.13,20.83,20.83,0,0,1-3.57,3.64,12.83,12.83,0,0,1,2.52,3.26,11.8,11.8,0,0,1,0,11.3,13.33,13.33,0,0,1-3.18,3.85v-5a.57.57,0,0,0-1.13,0v5a13.35,13.35,0,0,1-2.56-2.81,12.3,12.3,0,0,1-1.76-4.07,9.93,9.93,0,0,0,1.86-.89,9.58,9.58,0,0,0,3-3,9.64,9.64,0,0,0,4.07,3.51.56.56,0,1,0,.48-1A8.69,8.69,0,0,1,28.06,40a8.17,8.17,0,0,1-1.62-2s0,0,0,0a8.46,8.46,0,0,1-1-5.8c-.35-.25-.68-.51-1-.76A9.85,9.85,0,0,0,24.19,34a9.41,9.41,0,0,0,.88,3.77h0A1.19,1.19,0,0,1,25,38v0A8.48,8.48,0,0,1,22.08,41a9.25,9.25,0,0,1-3.71,1.3c-.1-.23-.19-.47-.27-.71s-.17-.59-.24-.9a11.08,11.08,0,0,0,2.86-2.08,11.25,11.25,0,0,0,.87-1,9.59,9.59,0,0,0,.74-1.06.57.57,0,1,0-1-.6,10.78,10.78,0,0,1-.67,1,7.85,7.85,0,0,1-.78.87,10.25,10.25,0,0,1-4.33,2.57,11.19,11.19,0,0,1-4.86.34,12.07,12.07,0,0,1,0-3,11.59,11.59,0,0,1,.73-2.85,10,10,0,0,0,1.63.08,9.46,9.46,0,0,0,4.52-1.27c.18-.11.37-.22.54-.34-.12.18-.23.36-.34.55h0a9.58,9.58,0,0,0-.94,2.26,9.7,9.7,0,0,0-.33,2.45.57.57,0,0,0,1.13,0,7.93,7.93,0,0,1,.3-2.16,8.43,8.43,0,0,1,.82-2h0a8.26,8.26,0,0,1,2.88-3,9,9,0,0,1,1.86-.86,17.8,17.8,0,0,1-3.27-3.77,13.29,13.29,0,0,1-3.36,2.63,11.8,11.8,0,0,1-11.3,0,13.37,13.37,0,0,1-3.86-3.18H6.77a.57.57,0,1,0,0-1.13h-5a13.6,13.6,0,0,1,2.81-2.56,12.34,12.34,0,0,1,4.06-1.76,10.63,10.63,0,0,0,.9,1.86,9.58,9.58,0,0,0,3,3,9.76,9.76,0,0,0-1.89,1.6,10.17,10.17,0,0,0-1.63,2.47.57.57,0,1,0,1,.48,8.43,8.43,0,0,1,1.45-2.19,8.12,8.12,0,0,1,2-1.62h0a8.38,8.38,0,0,1,4-1.11,9.17,9.17,0,0,1,2.15.21,8.73,8.73,0,0,1-.44-1.23,9.25,9.25,0,0,0-1.74-.11,9.53,9.53,0,0,0-3.76.88h0l-.18-.1a8.34,8.34,0,0,1-3-2.88,9.39,9.39,0,0,1-1.29-3.71c.23-.1.47-.19.7-.27s.6-.17.9-.24a11.08,11.08,0,0,0,2.08,2.86,11.37,11.37,0,0,0,1,.87,10.51,10.51,0,0,0,1,.74.56.56,0,0,0,.78-.18.56.56,0,0,0-.18-.78c-.33-.21-.64-.43-1-.67a8.79,8.79,0,0,1-.86-.78,10.27,10.27,0,0,1-2.58-4.33,11.51,11.51,0,0,1-.34-4.86,12.14,12.14,0,0,1,3,0,11.16,11.16,0,0,1,2.85.73,11.14,11.14,0,0,0-.09,1.63,9.69,9.69,0,0,0,1.27,4.52c.11.18.22.37.34.54-.17-.12-.36-.23-.54-.34a9.63,9.63,0,0,0-4.73-1.27.57.57,0,0,0,0,1.13,8.06,8.06,0,0,1,2.17.3,8.43,8.43,0,0,1,2,.82h0a8.41,8.41,0,0,1,2.36,2,3,3,0,0,1,1.52-1.36A8.42,8.42,0,0,1,17.63,13a9.44,9.44,0,0,1,.74-3.86l.23,0h.18a.57.57,0,0,0,.66-.46A.58.58,0,0,0,19,8.1h-.14l-.06,0-.35,0L18.1,8a.56.56,0,0,0-.6.32,11.11,11.11,0,0,0-.7,2,11.65,11.65,0,0,0-2.93-.73,12.92,12.92,0,0,0-3.72.11.57.57,0,0,0-.48.47A12.52,12.52,0,0,0,10,15.92c.09.3.19.59.3.88-.26.07-.52.14-.77.23a8.9,8.9,0,0,0-1.21.47h0a.58.58,0,0,0-.33.57,11.51,11.51,0,0,0,.28,1.66A13,13,0,0,0,3.9,21.64,14.64,14.64,0,0,0,.12,25.35a.62.62,0,0,0-.12.36A.48.48,0,0,0,.09,26h0l0,0A14.22,14.22,0,0,0,5,30.44a12.92,12.92,0,0,0,12.38,0,13.91,13.91,0,0,0,3.45-2.63,9.68,9.68,0,0,1-.9,2,8.39,8.39,0,0,1-6.94,4A9.43,9.43,0,0,1,9.16,33c0-.1,0-.18,0-.23v-.19A.56.56,0,0,0,8.76,32a.57.57,0,0,0-.66.46v.13h0l0,.07c0,.16,0,.27,0,.35s0,.17,0,.31a.57.57,0,0,0,.32.61,10.11,10.11,0,0,0,2,.69,11.87,11.87,0,0,0-.73,2.93,13,13,0,0,0,.11,3.73.6.6,0,0,0,.47.48,12.8,12.8,0,0,0,5.78-.32c.3-.09.59-.19.88-.3.07.25.14.51.23.77a9.44,9.44,0,0,0,.47,1.21h0a.56.56,0,0,0,.57.32,10.28,10.28,0,0,0,1.66-.28,13.14,13.14,0,0,0,1.91,4.37,14.68,14.68,0,0,0,3.7,3.76.58.58,0,0,0,.72,0,14.44,14.44,0,0,0,4.38-4.9,12.92,12.92,0,0,0,0-12.38,14.11,14.11,0,0,0-2.62-3.45,8.84,8.84,0,0,1,1.95.9,8.39,8.39,0,0,1,4,6.94A9.43,9.43,0,0,1,33,42.25l-.23,0h-.06l-.07,0h-.06a.56.56,0,1,0-.19,1.11l.06,0h.08l.07,0,.35,0,.31,0a.58.58,0,0,0,.61-.32,10.34,10.34,0,0,0,.69-2,12.31,12.31,0,0,0,2.93.72,13,13,0,0,0,3.73-.1.6.6,0,0,0,.48-.47,12.78,12.78,0,0,0-.32-5.78c-.09-.3-.19-.6-.3-.89.25-.06.51-.14.77-.22a11.19,11.19,0,0,0,1.21-.47.56.56,0,0,0,.32-.57,10.1,10.1,0,0,0-.28-1.66,13.37,13.37,0,0,0,4.37-1.92,14.57,14.57,0,0,0,3.75-3.68.55.55,0,0,0,.14-.37A.53.53,0,0,0,51.25,25.32Z"/><path class="cls-1" d="M21,17.41a14.59,14.59,0,0,0,1.15,1.78c2.58,0,3.51,3.36,3.51,3.36a7.29,7.29,0,0,1,1.19-2.06,10.44,10.44,0,0,0,.41-3.13,9.71,9.71,0,0,0-.88-3.76h0l.1-.18a8.45,8.45,0,0,1,2.89-3A9.4,9.4,0,0,1,33,9.16c.1.23.19.47.27.7s.18.6.25.9a11.3,11.3,0,0,0-2.87,2.08c-.3.31-.59.63-.86,1a10.51,10.51,0,0,0-.74,1,.57.57,0,1,0,1,.6c.2-.32.43-.64.67-1s.49-.58.77-.86a10.27,10.27,0,0,1,4.33-2.58,11.52,11.52,0,0,1,4.86-.34,11.25,11.25,0,0,1,0,3A10.4,10.4,0,0,1,40,16.59a11,11,0,0,0-1.62-.09,9.59,9.59,0,0,0-4.51,1.27l-.56.35c.12-.18.24-.37.34-.55a9.5,9.5,0,0,0,1.28-4.73.57.57,0,0,0-1.14,0A8.38,8.38,0,0,1,32.65,17a8.31,8.31,0,0,1-2,2.36,2.93,2.93,0,0,1,1.49,1.37,8.17,8.17,0,0,1,2.31-2,8.37,8.37,0,0,1,4-1.13,9.44,9.44,0,0,1,3.86.74c0,.1,0,.17,0,.23v.06l0,.06v.06A.56.56,0,1,0,43.3,19l0,0h0v-.07h0l0-.07c0-.15,0-.27,0-.34s0-.18,0-.32a.57.57,0,0,0-.32-.6,11.21,11.21,0,0,0-2-.7,11.76,11.76,0,0,0,.73-2.93,12.91,12.91,0,0,0-.1-3.72.57.57,0,0,0-.47-.48,12.51,12.51,0,0,0-5.78.32c-.3.09-.6.19-.89.3-.06-.26-.14-.52-.22-.77a10.44,10.44,0,0,0-.47-1.21A.59.59,0,0,0,33.34,8a11.28,11.28,0,0,0-1.66.28A13.23,13.23,0,0,0,29.76,3.9,14.41,14.41,0,0,0,26.06.13a.56.56,0,0,0-.73,0A14.49,14.49,0,0,0,21,5a13,13,0,0,0,0,12.38ZM22,5.57a13,13,0,0,1,3.18-3.85V6.77a.57.57,0,1,0,1.13,0V1.71a13.6,13.6,0,0,1,2.55,2.82,12.16,12.16,0,0,1,1.77,4.06,10.21,10.21,0,0,0-1.85.9,9.41,9.41,0,0,0-3,3,9.76,9.76,0,0,0-1.6-1.89,10.17,10.17,0,0,0-2.47-1.63.57.57,0,1,0-.48,1,8.54,8.54,0,0,1,2.18,1.45,8.12,8.12,0,0,1,1.62,2l0,0a8.38,8.38,0,0,1,1.11,4A9.55,9.55,0,0,1,25.46,21,13.21,13.21,0,0,1,22,16.87a11.8,11.8,0,0,1,0-11.3Z"/><path class="cls-1" d="M25.62,32.83a.53.53,0,0,1-.32-.1c-5-3.64-7.59-7.79-6.85-11.09a3.71,3.71,0,0,1,3-2.94c2.12-.4,3.52,1.07,4.25,2.46.81-1.41,2.31-2.93,4.44-2.52h0A3.58,3.58,0,0,1,33,21.48c.57,2.57-1,6.87-7,11.25A.53.53,0,0,1,25.62,32.83ZM22.1,19.74a2.85,2.85,0,0,0-.49,0,2.6,2.6,0,0,0-2.08,2.1c-.49,2.17.88,5.83,6.09,9.72,5.35-4,6.75-7.7,6.26-9.88a2.48,2.48,0,0,0-2-2h0c-2.53-.48-3.75,3-3.76,3a.54.54,0,0,1-.54.37.53.53,0,0,1-.51-.4C25.05,22.57,24.24,19.74,22.1,19.74Z"/></g></g></svg>