<?xml version="1.0" encoding="utf-8"?>
<!-- Generator: Adobe Illustrator 22.1.0, SVG Export Plug-In . SVG Version: 6.00 Build 0)  -->
<svg version="1.1" id="Capa_1" xmlns="http://www.w3.org/2000/svg" xmlns:xlink="http://www.w3.org/1999/xlink" x="0px" y="0px"
	 viewBox="0 0 209.7 68.1" style="enable-background:new 0 0 209.7 68.1;" xml:space="preserve">
<style type="text/css">
	.st0{fill:#5D5C60;}
	.st1{fill:#6AAB09;}
</style>
<g>
	<g>
		<g>
			<g>
				<path class="st0" d="M89.3,32.1H78.7c-0.2,0.5-0.4,1.1-0.6,1.7c-0.2,0.6-0.4,1.2-0.6,1.8c-0.2,0.6-0.4,1.1-0.6,1.7
					c-0.2,0.5-0.3,0.9-0.4,1.3c-0.4,0.2-0.8,0.2-1.3,0.2c-0.4,0-0.8-0.1-1.1-0.3c-0.3-0.2-0.5-0.6-0.5-1.1c0-0.2,0-0.5,0.1-0.7
					c0.1-0.2,0.2-0.5,0.3-0.8c0.4-1.1,0.9-2.5,1.5-4.3c0.6-1.7,1.3-3.6,2-5.5c0.7-2,1.5-3.9,2.2-5.9c0.7-2,1.4-3.8,2.1-5.3
					c0.2-0.1,0.5-0.2,0.9-0.3c0.4-0.1,0.9-0.2,1.3-0.2c0.5,0,1,0.1,1.5,0.2c0.5,0.2,0.8,0.4,0.9,0.8c0.6,1.5,1.3,3.3,2,5.2
					c0.7,2,1.5,4,2.2,6c0.7,2.1,1.4,4.1,2.1,6.1c0.7,2,1.3,3.8,1.8,5.4c-0.2,0.2-0.5,0.4-0.7,0.6c-0.3,0.1-0.6,0.2-1,0.2
					c-0.5,0-0.9-0.1-1.1-0.3c-0.3-0.2-0.5-0.6-0.7-1.1L89.3,32.1z M84,17c-0.3,0.8-0.6,1.7-1,2.7c-0.4,1-0.7,2.1-1.1,3.2
					c-0.4,1.1-0.8,2.2-1.2,3.4c-0.4,1.1-0.8,2.2-1.1,3.2h8.9c-0.4-1.2-0.8-2.4-1.2-3.6c-0.4-1.2-0.8-2.3-1.2-3.5
					c-0.4-1.1-0.7-2.1-1.1-3.1c-0.3-0.9-0.6-1.7-0.8-2.4H84z"/>
				<path class="st0" d="M99.7,38.1c-0.3-0.3-0.5-0.7-0.5-1.3V14.6c0.1-0.1,0.3-0.1,0.6-0.2c0.3-0.1,0.6-0.1,0.9-0.1
					c1.2,0,1.7,0.5,1.7,1.5v20h11.3c0.3,0.3,0.4,0.7,0.4,1.3c0,0.4-0.1,0.8-0.4,1.1c-0.2,0.3-0.6,0.4-0.9,0.4h-12
					C100.5,38.5,100.1,38.4,99.7,38.1z"/>
				<path class="st0" d="M135.3,17.2c0,0.4-0.1,0.7-0.3,0.9c-0.2,0.3-0.5,0.5-0.8,0.6c-0.7-0.5-1.5-0.9-2.4-1.3
					c-0.9-0.4-2.1-0.6-3.6-0.6c-1.2,0-2.3,0.2-3.4,0.6c-1,0.4-1.9,1-2.7,1.9c-0.8,0.8-1.4,1.8-1.8,3.1c-0.4,1.2-0.7,2.7-0.7,4.3
					c0,1.6,0.2,3.1,0.6,4.3c0.4,1.2,1,2.2,1.8,3c0.7,0.8,1.6,1.4,2.7,1.8c1.1,0.4,2.2,0.6,3.5,0.6c1.4,0,2.6-0.2,3.6-0.6
					c1-0.4,1.9-0.8,2.5-1.4c0.3,0.1,0.5,0.3,0.7,0.6c0.2,0.3,0.4,0.6,0.4,1c0,0.6-0.3,1.1-0.9,1.5c-0.6,0.4-1.4,0.8-2.5,1.1
					c-1.1,0.3-2.4,0.5-4,0.5c-1.7,0-3.2-0.3-4.6-0.8c-1.4-0.5-2.6-1.3-3.7-2.3c-1-1-1.9-2.3-2.5-3.9c-0.6-1.6-0.9-3.4-0.9-5.4
					c0-2.1,0.3-3.9,0.9-5.5c0.6-1.6,1.5-2.9,2.5-3.9c1.1-1.1,2.3-1.8,3.7-2.4c1.4-0.5,2.9-0.8,4.4-0.8c1.1,0,2.1,0.1,3,0.3
					c0.9,0.2,1.7,0.4,2.3,0.7c0.6,0.3,1.1,0.6,1.5,1C135.1,16.4,135.3,16.8,135.3,17.2z"/>
				<path class="st0" d="M155.2,32.1h-10.6c-0.2,0.5-0.4,1.1-0.6,1.7c-0.2,0.6-0.4,1.2-0.6,1.8c-0.2,0.6-0.4,1.1-0.6,1.7
					c-0.2,0.5-0.3,0.9-0.4,1.3c-0.4,0.2-0.8,0.2-1.3,0.2c-0.4,0-0.8-0.1-1.1-0.3c-0.3-0.2-0.5-0.6-0.5-1.1c0-0.2,0-0.5,0.1-0.7
					c0.1-0.2,0.2-0.5,0.3-0.8c0.4-1.1,0.9-2.5,1.5-4.3c0.6-1.7,1.3-3.6,2-5.5c0.7-2,1.5-3.9,2.2-5.9c0.7-2,1.4-3.8,2.1-5.3
					c0.2-0.1,0.5-0.2,0.9-0.3c0.4-0.1,0.9-0.2,1.3-0.2c0.5,0,1,0.1,1.5,0.2c0.5,0.2,0.8,0.4,0.9,0.8c0.6,1.5,1.3,3.3,2,5.2
					c0.7,2,1.5,4,2.2,6c0.7,2.1,1.4,4.1,2.1,6.1c0.7,2,1.3,3.8,1.8,5.4c-0.2,0.2-0.5,0.4-0.7,0.6s-0.6,0.2-1,0.2
					c-0.5,0-0.9-0.1-1.1-0.3c-0.3-0.2-0.5-0.6-0.7-1.1L155.2,32.1z M149.9,17c-0.3,0.8-0.6,1.7-1,2.7c-0.4,1-0.7,2.1-1.1,3.2
					c-0.4,1.1-0.8,2.2-1.2,3.4c-0.4,1.1-0.8,2.2-1.1,3.2h8.9c-0.4-1.2-0.8-2.4-1.2-3.6c-0.4-1.2-0.8-2.3-1.2-3.5
					c-0.4-1.1-0.7-2.1-1.1-3.1c-0.3-0.9-0.6-1.7-0.8-2.4H149.9z"/>
				<path class="st0" d="M179.7,32.1h-10.6c-0.2,0.5-0.4,1.1-0.6,1.7c-0.2,0.6-0.4,1.2-0.6,1.8c-0.2,0.6-0.4,1.1-0.6,1.7
					c-0.2,0.5-0.3,0.9-0.4,1.3c-0.4,0.2-0.8,0.2-1.3,0.2c-0.4,0-0.8-0.1-1.1-0.3c-0.3-0.2-0.5-0.6-0.5-1.1c0-0.2,0-0.5,0.1-0.7
					c0.1-0.2,0.2-0.5,0.3-0.8c0.4-1.1,0.9-2.5,1.5-4.3c0.6-1.7,1.3-3.6,2-5.5c0.7-2,1.5-3.9,2.2-5.9c0.7-2,1.4-3.8,2.1-5.3
					c0.2-0.1,0.5-0.2,0.9-0.3c0.4-0.1,0.9-0.2,1.3-0.2c0.5,0,1,0.1,1.5,0.2c0.5,0.2,0.8,0.4,0.9,0.8c0.6,1.5,1.3,3.3,2,5.2
					c0.7,2,1.5,4,2.2,6c0.7,2.1,1.4,4.1,2.1,6.1c0.7,2,1.3,3.8,1.8,5.4c-0.2,0.2-0.5,0.4-0.7,0.6c-0.3,0.1-0.6,0.2-1,0.2
					c-0.5,0-0.9-0.1-1.1-0.3c-0.3-0.2-0.5-0.6-0.7-1.1L179.7,32.1z M174.4,17c-0.3,0.8-0.6,1.7-1,2.7c-0.4,1-0.7,2.1-1.1,3.2
					c-0.4,1.1-0.8,2.2-1.2,3.4c-0.4,1.1-0.8,2.2-1.1,3.2h8.9c-0.4-1.2-0.8-2.4-1.2-3.6c-0.4-1.2-0.8-2.3-1.2-3.5
					c-0.4-1.1-0.7-2.1-1.1-3.1c-0.3-0.9-0.6-1.7-0.8-2.4H174.4z"/>
				<path class="st0" d="M190.2,38.1c-0.3-0.3-0.5-0.7-0.5-1.3V14.6c0.1-0.1,0.3-0.1,0.6-0.2c0.3-0.1,0.6-0.1,0.9-0.1
					c1.2,0,1.7,0.5,1.7,1.5v20h11.3c0.3,0.3,0.4,0.7,0.4,1.3c0,0.4-0.1,0.8-0.4,1.1c-0.2,0.3-0.6,0.4-0.9,0.4h-12
					C190.9,38.5,190.5,38.4,190.2,38.1z"/>
			</g>
		</g>
		<g>
			<path class="st1" d="M76.2,54.4c0,0.2-0.1,0.3-0.2,0.4C75.8,55,75.7,55,75.5,55c-0.1,0-0.2,0-0.3-0.1c-0.1-0.1-0.2-0.2-0.2-0.3
				l-0.9-2h-4.8l-0.9,2c-0.1,0.1-0.1,0.2-0.2,0.3C68.1,55,68,55,67.9,55c-0.2,0-0.3-0.1-0.5-0.2c-0.1-0.1-0.2-0.3-0.2-0.4
				c0-0.1,0-0.2,0.1-0.3l3.7-8.1c0.1-0.1,0.2-0.2,0.3-0.3c0.1-0.1,0.3-0.1,0.4-0.1c0.1,0,0.3,0,0.4,0.1c0.1,0.1,0.2,0.2,0.3,0.3
				l3.7,8.1C76.2,54.3,76.2,54.4,76.2,54.4z M69.8,51.6h3.8l-1.9-4.3L69.8,51.6z"/>
			<path class="st1" d="M86.2,50.2c0.1,0.1,0.2,0.2,0.2,0.4v3.1c0,0.3,0,0.5-0.1,0.6c-0.1,0.1-0.2,0.2-0.5,0.3
				c-0.3,0.1-0.8,0.2-1.2,0.3c-0.5,0.1-1,0.1-1.4,0.1c-0.9,0-1.7-0.2-2.4-0.6c-0.7-0.4-1.2-0.9-1.6-1.6s-0.5-1.6-0.5-2.5
				c0-1,0.2-1.8,0.5-2.5c0.4-0.7,0.9-1.3,1.5-1.6c0.7-0.4,1.5-0.6,2.4-0.6c0.6,0,1.2,0.1,1.7,0.3c0.5,0.2,1,0.4,1.3,0.8
				c0.2,0.1,0.3,0.3,0.3,0.5c0,0.2,0,0.3-0.1,0.4c-0.1,0.1-0.2,0.2-0.3,0.2c-0.1,0-0.1,0-0.2,0c-0.1,0-0.1-0.1-0.2-0.1
				c-0.4-0.3-0.8-0.5-1.2-0.7c-0.3-0.1-0.8-0.2-1.2-0.2c-1,0-1.8,0.3-2.3,0.9c-0.5,0.6-0.8,1.5-0.8,2.7c0,1.2,0.3,2.1,0.8,2.7
				c0.5,0.6,1.3,0.9,2.4,0.9c0.7,0,1.4-0.1,2-0.3v-2.6h-1.7c-0.2,0-0.3,0-0.4-0.1c-0.1-0.1-0.2-0.2-0.2-0.4c0-0.2,0-0.3,0.2-0.4
				c0.1-0.1,0.2-0.1,0.4-0.1h2.4C86,50,86.1,50.1,86.2,50.2z"/>
			<path class="st1" d="M97.3,54.5c0,0.2-0.1,0.3-0.2,0.4C97,55,96.8,55,96.7,55c-0.2,0-0.4-0.1-0.6-0.3L94.3,52
				c-0.2-0.3-0.4-0.5-0.6-0.7c-0.2-0.1-0.5-0.2-0.9-0.2h-1.5v3.2c0,0.2-0.1,0.4-0.2,0.5C91,55,90.8,55,90.6,55
				c-0.2,0-0.4-0.1-0.5-0.2C90,54.7,90,54.5,90,54.3v-8c0-0.2,0.1-0.4,0.2-0.5c0.1-0.1,0.3-0.2,0.5-0.2h3.3c1,0,1.8,0.2,2.3,0.7
				c0.5,0.5,0.8,1.1,0.8,2c0,0.7-0.2,1.3-0.6,1.8c-0.4,0.5-1,0.7-1.8,0.9c0.2,0.1,0.4,0.2,0.6,0.3c0.2,0.2,0.4,0.4,0.5,0.7l1.3,2.1
				C97.3,54.2,97.3,54.3,97.3,54.5z M93.7,50c0.7,0,1.2-0.1,1.5-0.4c0.3-0.3,0.5-0.7,0.5-1.2c0-0.6-0.2-1-0.5-1.2
				c-0.3-0.3-0.8-0.4-1.5-0.4h-2.5V50H93.7z"/>
			<path class="st1" d="M102.2,54.5c-0.6-0.4-1.1-0.9-1.5-1.6c-0.3-0.7-0.5-1.5-0.5-2.5c0-1,0.2-1.8,0.5-2.5
				c0.3-0.7,0.8-1.3,1.5-1.6c0.6-0.4,1.4-0.6,2.3-0.6c0.9,0,1.6,0.2,2.3,0.6c0.6,0.4,1.1,0.9,1.5,1.6c0.3,0.7,0.5,1.5,0.5,2.5
				c0,1-0.2,1.8-0.5,2.5c-0.3,0.7-0.8,1.3-1.5,1.6c-0.6,0.4-1.4,0.6-2.3,0.6C103.6,55.1,102.9,54.9,102.2,54.5z M106.6,53
				c0.5-0.6,0.8-1.5,0.8-2.7c0-1.2-0.3-2.1-0.8-2.7c-0.5-0.6-1.2-0.9-2.2-0.9c-0.9,0-1.6,0.3-2.1,0.9s-0.8,1.5-0.8,2.7
				c0,1.2,0.3,2.1,0.8,2.7c0.5,0.6,1.2,0.9,2.1,0.9C105.4,54,106.1,53.6,106.6,53z"/>
			<path class="st1" d="M112.4,54.8c-0.1-0.1-0.2-0.3-0.2-0.5v-8c0-0.2,0.1-0.4,0.2-0.5c0.1-0.1,0.3-0.2,0.5-0.2
				c0.2,0,0.4,0.1,0.5,0.2c0.1,0.1,0.2,0.3,0.2,0.5v8c0,0.2-0.1,0.4-0.2,0.5c-0.1,0.1-0.3,0.2-0.5,0.2C112.7,55,112.5,55,112.4,54.8
				z"/>
			<path class="st1" d="M124.7,45.8c0.1,0.1,0.2,0.3,0.2,0.5v8c0,0.2-0.1,0.4-0.2,0.5c-0.1,0.1-0.3,0.2-0.5,0.2
				c-0.2,0-0.4-0.1-0.5-0.3l-5.1-6.8v6.4c0,0.2-0.1,0.4-0.2,0.5c-0.1,0.1-0.3,0.2-0.5,0.2s-0.3-0.1-0.5-0.2
				c-0.1-0.1-0.2-0.3-0.2-0.5v-8c0-0.2,0.1-0.4,0.2-0.5c0.1-0.1,0.3-0.2,0.5-0.2c0.2,0,0.4,0.1,0.5,0.3l5.1,6.8v-6.4
				c0-0.2,0.1-0.4,0.2-0.5c0.1-0.1,0.3-0.2,0.5-0.2S124.6,45.7,124.7,45.8z"/>
			<path class="st1" d="M128.7,54.8c-0.1-0.1-0.2-0.3-0.2-0.5v-7.9c0-0.2,0.1-0.4,0.2-0.5c0.1-0.1,0.3-0.2,0.5-0.2h2.6
				c1.5,0,2.7,0.4,3.5,1.2c0.8,0.8,1.2,1.9,1.2,3.4c0,1.5-0.4,2.6-1.2,3.4c-0.8,0.8-2,1.2-3.5,1.2h-2.6
				C129,54.9,128.9,54.9,128.7,54.8z M131.7,53.8c2.3,0,3.4-1.2,3.4-3.5c0-2.3-1.1-3.5-3.4-3.5h-1.8v7H131.7z"/>
			<path class="st1" d="M140.8,54.1c-0.6-0.6-1-1.6-1-2.8v-5c0-0.2,0.1-0.4,0.2-0.5c0.1-0.1,0.3-0.2,0.5-0.2s0.4,0.1,0.5,0.2
				c0.1,0.1,0.2,0.3,0.2,0.5v5c0,0.8,0.2,1.5,0.6,1.9c0.4,0.4,1,0.7,1.8,0.7c0.8,0,1.4-0.2,1.8-0.7c0.4-0.4,0.6-1.1,0.6-1.9v-5
				c0-0.2,0.1-0.4,0.2-0.5c0.1-0.1,0.3-0.2,0.5-0.2s0.4,0.1,0.5,0.2c0.1,0.1,0.2,0.3,0.2,0.5v5c0,1.2-0.3,2.2-1,2.8
				c-0.6,0.6-1.6,1-2.8,1C142.4,55.1,141.4,54.7,140.8,54.1z"/>
			<path class="st1" d="M152.2,54.8c-0.6-0.2-1.1-0.4-1.4-0.8c-0.2-0.1-0.2-0.3-0.2-0.5c0-0.2,0-0.3,0.1-0.4
				c0.1-0.1,0.2-0.2,0.3-0.2c0.1,0,0.3,0.1,0.4,0.2c0.8,0.6,1.7,0.9,2.7,0.9c0.7,0,1.2-0.1,1.6-0.4c0.4-0.3,0.6-0.6,0.6-1.1
				c0-0.4-0.2-0.7-0.5-0.9c-0.3-0.2-0.9-0.4-1.7-0.6c-0.7-0.2-1.3-0.3-1.8-0.5c-0.5-0.2-0.8-0.5-1.1-0.8c-0.3-0.3-0.4-0.8-0.4-1.3
				c0-0.5,0.1-1,0.4-1.4c0.3-0.4,0.7-0.7,1.2-1c0.5-0.2,1.1-0.3,1.8-0.3c0.6,0,1.2,0.1,1.7,0.3c0.5,0.2,1,0.4,1.3,0.8
				c0.2,0.1,0.3,0.3,0.3,0.5c0,0.1,0,0.3-0.1,0.4c-0.1,0.1-0.2,0.2-0.3,0.2c-0.1,0-0.3-0.1-0.4-0.2c-0.4-0.3-0.8-0.5-1.1-0.7
				c-0.4-0.1-0.8-0.2-1.3-0.2c-0.7,0-1.2,0.1-1.6,0.4c-0.4,0.3-0.6,0.7-0.6,1.1c0,0.4,0.2,0.7,0.5,1c0.3,0.2,0.9,0.4,1.6,0.6
				c0.8,0.2,1.4,0.4,1.9,0.5c0.5,0.2,0.9,0.4,1.1,0.8s0.4,0.7,0.4,1.3c0,0.5-0.1,1-0.4,1.4c-0.3,0.4-0.7,0.7-1.2,0.9
				c-0.5,0.2-1.1,0.3-1.8,0.3C153.4,55.1,152.8,55,152.2,54.8z"/>
			<path class="st1" d="M163,54.8c-0.1-0.1-0.2-0.3-0.2-0.5v-7.5h-2.6c-0.4,0-0.6-0.2-0.6-0.6c0-0.2,0.1-0.3,0.2-0.4
				c0.1-0.1,0.3-0.1,0.5-0.1h6.6c0.2,0,0.4,0,0.5,0.1c0.1,0.1,0.2,0.2,0.2,0.4c0,0.4-0.2,0.6-0.6,0.6h-2.6v7.5
				c0,0.2-0.1,0.4-0.2,0.5c-0.1,0.1-0.3,0.2-0.5,0.2C163.3,55,163.1,54.9,163,54.8z"/>
			<path class="st1" d="M177.4,54.5c0,0.2-0.1,0.3-0.2,0.4c-0.1,0.1-0.3,0.2-0.4,0.2c-0.2,0-0.4-0.1-0.6-0.3l-1.8-2.7
				c-0.2-0.3-0.4-0.5-0.6-0.7c-0.2-0.1-0.5-0.2-0.9-0.2h-1.5v3.2c0,0.2-0.1,0.4-0.2,0.5c-0.1,0.1-0.3,0.2-0.5,0.2
				c-0.2,0-0.4-0.1-0.5-0.2c-0.1-0.1-0.2-0.3-0.2-0.5v-8c0-0.2,0.1-0.4,0.2-0.5c0.1-0.1,0.3-0.2,0.5-0.2h3.3c1,0,1.8,0.2,2.3,0.7
				c0.5,0.5,0.8,1.1,0.8,2c0,0.7-0.2,1.3-0.6,1.8c-0.4,0.5-1,0.7-1.8,0.9c0.2,0.1,0.4,0.2,0.6,0.3c0.2,0.2,0.4,0.4,0.5,0.7l1.3,2.1
				C177.4,54.2,177.4,54.3,177.4,54.5z M173.9,50c0.7,0,1.2-0.1,1.5-0.4c0.3-0.3,0.5-0.7,0.5-1.2c0-0.6-0.2-1-0.5-1.2
				c-0.3-0.3-0.8-0.4-1.5-0.4h-2.5V50H173.9z"/>
			<path class="st1" d="M180.9,54.8c-0.1-0.1-0.2-0.3-0.2-0.5v-8c0-0.2,0.1-0.4,0.2-0.5c0.1-0.1,0.3-0.2,0.5-0.2
				c0.2,0,0.4,0.1,0.5,0.2c0.1,0.1,0.2,0.3,0.2,0.5v8c0,0.2-0.1,0.4-0.2,0.5c-0.1,0.1-0.3,0.2-0.5,0.2C181.2,55,181,55,180.9,54.8z"
				/>
			<path class="st1" d="M194,54.4c0,0.2-0.1,0.3-0.2,0.4c-0.1,0.1-0.3,0.2-0.5,0.2c-0.1,0-0.2,0-0.3-0.1c-0.1-0.1-0.2-0.2-0.2-0.3
				l-0.9-2h-4.8l-0.9,2c-0.1,0.1-0.1,0.2-0.2,0.3c-0.1,0.1-0.2,0.1-0.3,0.1c-0.2,0-0.3-0.1-0.5-0.2c-0.1-0.1-0.2-0.3-0.2-0.4
				c0-0.1,0-0.2,0.1-0.3l3.7-8.1c0.1-0.1,0.2-0.2,0.3-0.3s0.3-0.1,0.4-0.1c0.1,0,0.3,0,0.4,0.1c0.1,0.1,0.2,0.2,0.3,0.3l3.7,8.1
				C194,54.3,194,54.4,194,54.4z M187.6,51.6h3.8l-1.9-4.3L187.6,51.6z"/>
			<path class="st1" d="M197.2,54.8c-0.1-0.1-0.2-0.3-0.2-0.5v-8c0-0.2,0.1-0.4,0.2-0.5c0.1-0.1,0.3-0.2,0.5-0.2
				c0.2,0,0.4,0.1,0.5,0.2c0.1,0.1,0.2,0.3,0.2,0.5v7.5h4c0.2,0,0.4,0,0.5,0.1c0.1,0.1,0.2,0.2,0.2,0.4s-0.1,0.3-0.2,0.4
				c-0.1,0.1-0.3,0.1-0.5,0.1h-4.7C197.5,54.9,197.3,54.9,197.2,54.8z"/>
		</g>
	</g>
	<g>
		<g>
			<g>
				<path class="st1" d="M65.7,33.1c-1.5-2.2-3.5-3.9-5.8-5.1c-2.2-1.2-4.7-1.9-7.3-1.9c-2.6,0-5.1,0.7-7.3,1.9
					c-0.6,0.3-1.2,0.7-1.8,1.1c0.1,0.5,0.1,1.1,0,1.7c0.8-0.6,1.6-1.2,2.5-1.7c2-1.1,4.3-1.7,6.7-1.7c2.4,0,4.7,0.6,6.7,1.7
					c1.7,0.9,3.3,2.2,4.5,3.8h-6c-0.4,0-0.7,0.3-0.7,0.7c0,0.4,0.3,0.7,0.7,0.7h6c-1,1.2-2.1,2.2-3.3,3c-1.5,1-3.1,1.7-4.8,2.1
					c-0.3-0.8-0.6-1.5-1.1-2.2c-0.9-1.4-2-2.7-3.5-3.6c0.8-0.5,1.6-1.2,2.2-1.9c0.8-0.9,1.4-1.9,1.9-2.9c0.2-0.3,0-0.7-0.3-0.9
					c-0.3-0.2-0.7,0-0.9,0.3c-0.4,0.9-1,1.8-1.7,2.6c-0.7,0.7-1.5,1.4-2.4,1.9c0,0,0,0,0,0c-1.5,0.8-3.1,1.3-4.7,1.3
					c-0.9,0-1.9-0.1-2.8-0.3c-0.2,0.4-0.4,0.8-0.7,1.2c1.2,0.3,2.4,0.5,3.5,0.4c1.5,0,3-0.4,4.4-1l0,0c0.1,0,0.1,0.1,0.2,0.1
					c0,0,0,0,0,0c1.5,0.8,2.6,2,3.5,3.4c0.8,1.3,1.3,2.8,1.5,4.4c-0.3,0.1-0.6,0.2-0.8,0.3c-0.3,0.1-0.7,0.2-1.1,0.3
					c-0.6-1.2-1.4-2.4-2.5-3.4c-0.4-0.4-0.7-0.7-1.1-1c-0.4-0.3-0.8-0.6-1.2-0.9c-0.3-0.2-0.7-0.1-0.9,0.2c-0.2,0.3-0.1,0.7,0.2,0.9
					c0.4,0.2,0.8,0.5,1.1,0.8c0.3,0.3,0.7,0.6,1,0.9c1.5,1.5,2.5,3.2,3,5.1c0.5,1.8,0.7,3.8,0.4,5.7c-1.2,0.2-2.4,0.2-3.6,0
					c-1.2-0.1-2.3-0.4-3.4-0.9c0.1-0.6,0.1-1.3,0.1-1.9c-0.1-1.8-0.5-3.7-1.5-5.3c-0.1-0.2-0.3-0.4-0.4-0.7c0.2,0.1,0.4,0.3,0.7,0.4
					h0c0.9,0.5,1.8,0.9,2.7,1.1c0.9,0.3,1.9,0.4,2.9,0.4c0.4,0,0.7-0.3,0.7-0.7c0-0.4-0.3-0.7-0.7-0.7c-0.9,0-1.7-0.1-2.6-0.3
					c-0.8-0.2-1.6-0.5-2.4-1c-1.5-0.9-2.6-2-3.5-3.4c-0.5-0.8-0.8-1.6-1.1-2.5c-1,1.4-2.4,2.8-4.2,4.3c1.2,1.1,2.2,2.4,3,3.9
					c1.1,2,1.7,4.3,1.7,6.7c0,2.4-0.6,4.7-1.7,6.7c-0.9,1.7-2.2,3.3-3.8,4.6v-6c0-0.4-0.3-0.7-0.7-0.7c-0.4,0-0.7,0.3-0.7,0.7v6
					c-1.2-1-2.2-2.1-3-3.3c-1-1.5-1.7-3.1-2.1-4.8c0.8-0.3,1.5-0.6,2.2-1.1c1.4-0.9,2.6-2,3.6-3.5c0.5,0.8,1.2,1.6,1.9,2.2
					c0.9,0.8,1.9,1.4,2.9,1.9c0.3,0.2,0.7,0,0.9-0.3c0.2-0.3,0-0.7-0.3-0.9c-0.9-0.4-1.8-1-2.6-1.7c-0.7-0.7-1.4-1.5-1.9-2.4
					c0,0,0,0,0,0c-0.8-1.5-1.3-3.1-1.3-4.7c0-0.7,0-1.5,0.2-2.2c-0.4-0.3-0.8-0.6-1.2-0.9c-0.2,1-0.4,2.1-0.3,3.1c0,1.5,0.4,3,1,4.4
					l0,0c0,0.1-0.1,0.1-0.1,0.2c0,0,0,0,0,0c-0.8,1.5-2,2.6-3.4,3.5c-1.3,0.8-2.8,1.3-4.4,1.5c-0.1-0.3-0.2-0.6-0.3-0.8
					c-0.1-0.4-0.2-0.7-0.3-1.1c1.2-0.6,2.4-1.4,3.4-2.5c0.4-0.4,0.7-0.7,1-1.1c0.3-0.4,0.6-0.8,0.9-1.2c0.2-0.3,0.1-0.7-0.2-0.9
					c-0.3-0.2-0.7-0.1-0.9,0.2c-0.2,0.4-0.5,0.8-0.8,1.1c-0.3,0.3-0.6,0.7-0.9,1c-1.5,1.5-3.2,2.5-5.1,3c-1.8,0.5-3.8,0.7-5.7,0.4
					c-0.2-1.2-0.2-2.4,0-3.6c0.1-1.2,0.4-2.3,0.9-3.4c0.6,0.1,1.3,0.1,1.9,0.1c1.8-0.1,3.7-0.5,5.3-1.5c0.2-0.1,0.4-0.3,0.6-0.4
					c-0.1,0.2-0.3,0.4-0.4,0.6v0c-0.5,0.9-0.9,1.8-1.1,2.7c-0.3,0.9-0.4,1.9-0.4,2.9c0,0.4,0.3,0.7,0.7,0.7c0.4,0,0.7-0.3,0.7-0.7
					c0-0.9,0.1-1.7,0.4-2.6c0.2-0.8,0.5-1.6,1-2.4h0c0.8-1.5,2-2.6,3.4-3.5c0.7-0.4,1.4-0.8,2.2-1c-1.7-1.5-3-3-3.9-4.5
					c-1.2,1.3-2.5,2.3-4,3.1c-2,1.1-4.3,1.7-6.7,1.7c-2.4,0-4.7-0.6-6.7-1.7c-1.7-0.9-3.3-2.2-4.6-3.8h6c0.4,0,0.7-0.3,0.7-0.7
					c0-0.4-0.3-0.7-0.7-0.7h-6c1-1.2,2.1-2.2,3.3-3c1.5-1,3.1-1.7,4.8-2.1c0.3,0.8,0.6,1.5,1.1,2.2c0.9,1.4,2,2.6,3.5,3.6
					c-0.8,0.5-1.6,1.2-2.2,1.9c-0.8,0.9-1.4,1.9-1.9,2.9c-0.2,0.3,0,0.7,0.3,0.9c0.3,0.2,0.7,0,0.9-0.3c0.4-0.9,1-1.8,1.7-2.6
					c0.7-0.7,1.5-1.4,2.4-1.9c0,0,0,0,0,0c1.5-0.8,3.1-1.3,4.7-1.3c0.8,0,1.7,0.1,2.5,0.3c-0.2-0.5-0.4-1-0.5-1.5
					c-0.7-0.1-1.4-0.1-2.1-0.1c-1.5,0-3,0.4-4.4,1l0,0c-0.1,0-0.2-0.1-0.2-0.1c-1.5-0.8-2.6-2-3.5-3.4c-0.8-1.3-1.3-2.8-1.5-4.4
					c0.3-0.1,0.6-0.2,0.8-0.3c0.3-0.1,0.7-0.2,1.1-0.3c0.6,1.2,1.4,2.4,2.5,3.4c0.4,0.4,0.7,0.7,1.1,1c0.4,0.3,0.8,0.6,1.2,0.9
					c0.3,0.2,0.7,0.1,0.9-0.2c0.2-0.3,0.1-0.7-0.2-0.9c-0.4-0.2-0.8-0.5-1.1-0.8c-0.3-0.3-0.7-0.6-1-0.9c-1.5-1.5-2.5-3.2-3-5.1
					c-0.5-1.8-0.7-3.8-0.4-5.7c1.2-0.2,2.4-0.2,3.6,0c1.2,0.1,2.3,0.4,3.4,0.9c-0.1,0.6-0.1,1.3-0.1,1.9c0.1,1.8,0.5,3.7,1.5,5.3
					c0.1,0.2,0.3,0.4,0.4,0.6c-0.2-0.1-0.4-0.3-0.6-0.4c-0.9-0.5-1.8-0.9-2.7-1.1c-0.9-0.3-1.9-0.4-2.9-0.4c-0.4,0-0.7,0.3-0.7,0.7
					c0,0.4,0.3,0.7,0.7,0.7c0.9,0,1.7,0.1,2.6,0.3c0.8,0.2,1.6,0.5,2.4,1v0c1.1,0.6,2,1.5,2.8,2.4c0.4-0.7,1-1.3,1.8-1.6
					c-1-0.8-1.9-1.7-2.5-2.9c-0.9-1.5-1.3-3.1-1.3-4.7c0-1.5,0.3-3.1,0.9-4.6c0.1,0,0.2,0,0.3,0l0.1,0l0.1,0l0.1,0
					c0.4,0.1,0.7-0.2,0.8-0.5c0.1-0.4-0.2-0.7-0.6-0.8l-0.1,0v0l0,0l-0.1,0h0l-0.1,0c-0.2,0-0.3,0-0.4-0.1c-0.1,0-0.2,0-0.4,0
					c-0.3,0-0.6,0.1-0.7,0.4c-0.3,0.8-0.6,1.5-0.8,2.3c-1.1-0.4-2.3-0.7-3.5-0.9c-1.4-0.2-2.9-0.1-4.4,0.1c-0.3,0-0.5,0.3-0.6,0.6
					c-0.4,2.3-0.3,4.6,0.4,6.8c0.1,0.4,0.2,0.7,0.4,1c-0.3,0.1-0.6,0.2-0.9,0.3c-0.5,0.2-1,0.3-1.4,0.6v0c-0.3,0.1-0.4,0.4-0.4,0.7
					c0.1,0.7,0.2,1.3,0.3,2c-1.9,0.4-3.6,1.2-5.2,2.3c-1.7,1.2-3.2,2.6-4.5,4.4c-0.1,0.1-0.1,0.3-0.1,0.4c0,0.1,0,0.2,0.1,0.4l0,0
					l0,0l0,0l0,0c1.5,2.2,3.5,4,5.8,5.2c2.2,1.2,4.7,1.9,7.3,1.9c2.6,0,5.1-0.7,7.3-1.9c1.5-0.8,2.9-1.9,4.1-3.1
					c-0.3,0.8-0.6,1.6-1.1,2.3c-0.9,1.4-2,2.6-3.5,3.4c-1.5,0.8-3.1,1.3-4.7,1.3c-1.5,0-3.1-0.3-4.6-0.9c0-0.1,0-0.2,0-0.3l0-0.1
					l0-0.1l0-0.1c0.1-0.4-0.2-0.7-0.5-0.8c-0.4-0.1-0.7,0.2-0.8,0.5l0,0.1l0,0.1v0l0,0.1c0,0.2,0,0.3-0.1,0.4c0,0.1,0,0.2,0,0.4
					c0,0.3,0.1,0.6,0.4,0.7c0.8,0.4,1.5,0.6,2.3,0.8c-0.4,1.1-0.7,2.3-0.9,3.5c-0.2,1.5-0.1,2.9,0.1,4.4c0,0.3,0.3,0.5,0.6,0.6
					c2.3,0.4,4.6,0.3,6.8-0.4c0.4-0.1,0.7-0.2,1-0.4c0.1,0.3,0.2,0.6,0.3,0.9c0.2,0.5,0.3,1,0.6,1.4h0c0.1,0.3,0.4,0.4,0.7,0.4
					c0.7-0.1,1.3-0.2,2-0.3c0.4,1.9,1.2,3.6,2.3,5.2c1.2,1.7,2.6,3.2,4.4,4.4c0.1,0.1,0.3,0.2,0.4,0.2c0.2,0,0.3-0.1,0.4-0.2
					c2.2-1.5,4-3.5,5.2-5.8c1.2-2.2,1.9-4.7,1.9-7.3c0-2.6-0.7-5.1-1.9-7.3c-0.8-1.5-1.9-2.9-3.1-4.1c0.8,0.3,1.6,0.6,2.3,1.1
					c1.4,0.9,2.6,2,3.4,3.5c0.8,1.5,1.3,3.1,1.3,4.7c0,1.5-0.3,3.1-0.9,4.6c-0.1,0-0.2,0-0.3,0l-0.1,0l-0.1,0l-0.1,0
					c-0.4-0.1-0.7,0.2-0.8,0.5c-0.1,0.4,0.2,0.7,0.5,0.8l0.1,0l0.1,0h0l0.1,0c0.2,0,0.3,0,0.4,0.1c0.1,0,0.2,0,0.4,0
					c0.3,0,0.6-0.1,0.7-0.4c0.4-0.8,0.6-1.5,0.8-2.3c1.1,0.4,2.3,0.7,3.5,0.9c1.5,0.2,2.9,0.1,4.4-0.1c0.3,0,0.5-0.3,0.6-0.6
					c0.4-2.3,0.3-4.7-0.4-6.8c-0.1-0.4-0.2-0.7-0.4-1c0.3-0.1,0.6-0.2,0.9-0.3c0.5-0.2,1-0.3,1.4-0.6c0.3-0.1,0.4-0.4,0.4-0.7
					c-0.1-0.7-0.2-1.3-0.3-2c1.9-0.4,3.6-1.2,5.2-2.3c1.7-1.1,3.2-2.6,4.4-4.4c0.1-0.1,0.2-0.3,0.2-0.4
					C65.8,33.4,65.8,33.2,65.7,33.1z"/>
				<path class="st1" d="M29.9,23.7c0.4,0.7,0.9,1.4,1.4,2.1c3,0,4.1,4,4.1,4s0.4-1.3,1.4-2.4c0.3-1.2,0.5-2.5,0.5-3.7
					c0-1.5-0.4-3-1-4.4l0,0c0-0.1,0.1-0.2,0.1-0.2c0.8-1.5,2-2.6,3.4-3.5c1.3-0.8,2.8-1.3,4.4-1.5c0.1,0.3,0.2,0.6,0.3,0.8
					c0.1,0.3,0.2,0.7,0.3,1.1c-1.2,0.6-2.4,1.4-3.4,2.5c-0.4,0.4-0.7,0.7-1,1.1c-0.3,0.4-0.6,0.8-0.9,1.2c-0.2,0.3-0.1,0.7,0.2,0.9
					c0.3,0.2,0.7,0.1,0.9-0.2c0.2-0.4,0.5-0.8,0.8-1.1c0.3-0.4,0.6-0.7,0.9-1c1.5-1.5,3.2-2.5,5.1-3c1.8-0.5,3.8-0.7,5.7-0.4
					c0.2,1.2,0.2,2.4,0,3.6c-0.1,1.2-0.4,2.3-0.9,3.4c-0.6-0.1-1.3-0.1-1.9-0.1c-1.8,0.1-3.7,0.5-5.3,1.5c-0.2,0.1-0.4,0.3-0.7,0.4
					c0.1-0.2,0.3-0.4,0.4-0.7c0.5-0.9,0.9-1.8,1.1-2.7c0.3-0.9,0.4-1.9,0.4-2.9c0-0.4-0.3-0.7-0.7-0.7c-0.4,0-0.7,0.3-0.7,0.7
					c0,0.9-0.1,1.7-0.3,2.6c-0.2,0.8-0.5,1.6-1,2.4c-0.6,1.1-1.5,2-2.4,2.8c0.8,0.3,1.4,0.9,1.8,1.6c0.7-0.9,1.7-1.7,2.7-2.3
					c1.5-0.9,3.1-1.3,4.7-1.3c1.5,0,3.1,0.3,4.6,0.9c0,0.1,0,0.2,0,0.3l0,0.1l0,0.1l0,0.1c-0.1,0.4,0.2,0.7,0.5,0.8
					c0.4,0.1,0.7-0.2,0.8-0.6l0-0.1v0l0-0.1v0l0-0.1c0-0.2,0-0.3,0.1-0.4c0-0.1,0-0.2,0-0.4c0-0.3-0.1-0.6-0.4-0.7
					c-0.8-0.3-1.5-0.6-2.3-0.8c0.4-1.1,0.7-2.3,0.9-3.5c0.2-1.4,0.1-2.9-0.1-4.4c0-0.3-0.3-0.5-0.6-0.6c-2.3-0.4-4.6-0.3-6.8,0.4
					c-0.4,0.1-0.7,0.2-1,0.4c-0.1-0.3-0.2-0.6-0.3-0.9c-0.2-0.5-0.3-1-0.6-1.4c-0.1-0.3-0.4-0.4-0.7-0.4c-0.7,0.1-1.3,0.2-2,0.3
					c-0.4-1.9-1.2-3.6-2.3-5.1c-1.2-1.7-2.6-3.2-4.4-4.5c-0.1-0.1-0.3-0.2-0.4-0.2c-0.2,0-0.3,0.1-0.4,0.2c-2.2,1.5-3.9,3.5-5.2,5.8
					c-1.2,2.2-1.9,4.7-1.9,7.3C28,19,28.7,21.5,29.9,23.7z M31,9.7C32,8,33.2,6.5,34.8,5.2v6c0,0.4,0.3,0.7,0.7,0.7
					c0.4,0,0.7-0.3,0.7-0.7v-6c1.2,1,2.2,2.1,3,3.3c1,1.5,1.7,3.1,2.1,4.8c-0.8,0.3-1.5,0.6-2.2,1.1c-1.4,0.9-2.6,2-3.6,3.5
					c-0.5-0.8-1.2-1.6-1.9-2.2c-0.9-0.8-1.9-1.4-2.9-1.9c-0.3-0.2-0.7,0-0.9,0.3c-0.2,0.3,0,0.7,0.3,0.9c0.9,0.4,1.8,1,2.6,1.7
					c0.7,0.7,1.4,1.5,1.9,2.4c0,0,0,0,0,0c0.8,1.5,1.3,3.1,1.3,4.7c0,1.4-0.2,2.9-0.7,4.2c-1.7-1.3-3.1-3-4.1-4.9
					c-1.1-2-1.7-4.3-1.7-6.7C29.3,14,29.9,11.7,31,9.7z"/>
			</g>
			<path class="st1" d="M35.4,42c-0.1,0-0.3,0-0.4-0.1c-5.9-4.3-9-9.2-8.1-13.1c0.4-1.8,1.7-3.1,3.5-3.5c2.5-0.5,4.2,1.3,5,2.9
				c1-1.7,2.7-3.5,5.3-3v0c1.7,0.3,3,1.6,3.4,3.4c0.7,3-1.1,8.1-8.3,13.3C35.6,41.9,35.5,42,35.4,42z M31.2,26.5
				c-0.2,0-0.4,0-0.6,0.1c-1.3,0.2-2.2,1.1-2.5,2.5c-0.6,2.6,1,6.9,7.2,11.5c6.3-4.7,8-9.1,7.4-11.7c-0.3-1.3-1.1-2.1-2.3-2.4l0,0
				C37.4,25.9,36,30,36,30c-0.1,0.3-0.3,0.5-0.6,0.4c-0.3,0-0.5-0.2-0.6-0.5C34.7,29.8,33.7,26.5,31.2,26.5z"/>
		</g>
	</g>
</g>
</svg>
