<svg xmlns="http://www.w3.org/2000/svg" viewBox="0 0 202.06 61.51"><defs><style>.cls-1{fill:#fff;}.cls-2{fill:#6aa109;}</style></defs><g id="Capa_2" data-name="Capa 2"><g id="Landing"><path class="cls-1" d="M85.22,29.35H74.52c-.19.53-.39,1.11-.6,1.73l-.62,1.84c-.2.6-.39,1.16-.58,1.68s-.33.95-.44,1.29a3.29,3.29,0,0,1-1.31.24,1.94,1.94,0,0,1-1.14-.34,1.2,1.2,0,0,1-.5-1.09,2.43,2.43,0,0,1,.12-.74c.08-.26.17-.53.28-.82l1.53-4.31q.94-2.64,2-5.61c.73-2,1.48-4,2.24-6s1.45-3.82,2.09-5.41a4.62,4.62,0,0,1,1-.32,5.3,5.3,0,0,1,1.32-.16,5,5,0,0,1,1.54.24,1.37,1.37,0,0,1,.94.79c.63,1.55,1.32,3.31,2,5.3s1.47,4,2.22,6.09,1.46,4.11,2.13,6.12,1.29,3.83,1.82,5.46a2.53,2.53,0,0,1-.76.57,2.14,2.14,0,0,1-1,.22,1.7,1.7,0,0,1-1.15-.34A2.45,2.45,0,0,1,87,34.66Zm-5.35-15.3c-.29.8-.63,1.71-1,2.74s-.76,2.09-1.16,3.21-.8,2.25-1.19,3.4-.78,2.23-1.12,3.27h9c-.4-1.2-.81-2.4-1.24-3.61s-.83-2.38-1.21-3.5l-1.08-3.09c-.34-.95-.61-1.75-.82-2.42Z"/><path class="cls-1" d="M95.82,35.34a1.71,1.71,0,0,1-.5-1.28V11.62a3.48,3.48,0,0,1,.62-.18,3.71,3.71,0,0,1,.9-.1c1.17,0,1.76.49,1.76,1.47V33h11.46a1.8,1.8,0,0,1,.44,1.32,1.52,1.52,0,0,1-.36,1.07,1.22,1.22,0,0,1-1,.4H97.08A1.77,1.77,0,0,1,95.82,35.34Z"/><path class="cls-1" d="M131.86,14.21a1.43,1.43,0,0,1-.34,1,2.21,2.21,0,0,1-.78.6,15.72,15.72,0,0,0-2.44-1.36,8.88,8.88,0,0,0-3.63-.64,9,9,0,0,0-3.39.64,7.64,7.64,0,0,0-2.72,1.88,8.7,8.7,0,0,0-1.82,3.11,13.26,13.26,0,0,0-.65,4.32,13.32,13.32,0,0,0,.63,4.31,8.71,8.71,0,0,0,1.78,3.07A7.11,7.11,0,0,0,121.24,33a9.8,9.8,0,0,0,3.55.62,10,10,0,0,0,6.19-2,2,2,0,0,1,.76.58,1.47,1.47,0,0,1,.36,1,1.91,1.91,0,0,1-1,1.52,9.35,9.35,0,0,1-2.52,1.13,13.63,13.63,0,0,1-4.07.5,13.17,13.17,0,0,1-4.67-.8,10.17,10.17,0,0,1-3.73-2.37,11.09,11.09,0,0,1-2.5-3.93,15.18,15.18,0,0,1-.92-5.51,14.86,14.86,0,0,1,.94-5.53,11.53,11.53,0,0,1,2.54-4,10.33,10.33,0,0,1,3.73-2.39,12.53,12.53,0,0,1,4.49-.8,15,15,0,0,1,3,.28,10,10,0,0,1,2.35.74,4.92,4.92,0,0,1,1.52,1A1.72,1.72,0,0,1,131.86,14.21Z"/><path class="cls-1" d="M151.94,29.35h-10.7c-.18.53-.38,1.11-.6,1.73L140,32.92q-.3.9-.57,1.68c-.19.52-.34.95-.44,1.29a3.38,3.38,0,0,1-1.32.24,1.94,1.94,0,0,1-1.14-.34,1.22,1.22,0,0,1-.5-1.09,2.43,2.43,0,0,1,.12-.74c.08-.26.17-.53.28-.82.4-1.12.91-2.56,1.54-4.31s1.3-3.63,2-5.61,1.48-4,2.24-6,1.46-3.82,2.1-5.41a4.3,4.3,0,0,1,.95-.32,5.3,5.3,0,0,1,1.32-.16,4.91,4.91,0,0,1,1.54.24,1.37,1.37,0,0,1,.94.79c.64,1.55,1.32,3.31,2,5.3s1.48,4,2.22,6.09,1.46,4.11,2.14,6.12,1.28,3.83,1.81,5.46a2.49,2.49,0,0,1-.75.57,2.19,2.19,0,0,1-1,.22,1.73,1.73,0,0,1-1.16-.34,2.54,2.54,0,0,1-.68-1.13Zm-5.35-15.3c-.29.8-.62,1.71-1,2.74s-.75,2.09-1.15,3.21-.8,2.25-1.2,3.4-.77,2.23-1.12,3.27h9c-.39-1.2-.81-2.4-1.23-3.61s-.84-2.38-1.22-3.5l-1.08-3.09c-.33-.95-.6-1.75-.82-2.42Z"/><path class="cls-1" d="M176.78,29.35h-10.7c-.19.53-.39,1.11-.6,1.73l-.62,1.84c-.2.6-.39,1.16-.58,1.68s-.33.95-.44,1.29a3.31,3.31,0,0,1-1.32.24,1.93,1.93,0,0,1-1.13-.34,1.2,1.2,0,0,1-.5-1.09A2.43,2.43,0,0,1,161,34c.08-.26.17-.53.28-.82l1.53-4.31q.94-2.64,2-5.61c.73-2,1.48-4,2.24-6s1.45-3.82,2.09-5.41a4.62,4.62,0,0,1,1-.32,5.3,5.3,0,0,1,1.32-.16,5,5,0,0,1,1.54.24,1.33,1.33,0,0,1,.93.79c.64,1.55,1.33,3.31,2.06,5.3s1.47,4,2.22,6.09,1.46,4.11,2.13,6.12,1.29,3.83,1.82,5.46a2.53,2.53,0,0,1-.76.57,2.14,2.14,0,0,1-1,.22,1.7,1.7,0,0,1-1.15-.34,2.45,2.45,0,0,1-.68-1.13Zm-5.35-15.3c-.29.8-.63,1.71-1,2.74s-.76,2.09-1.16,3.21-.8,2.25-1.19,3.4-.78,2.23-1.12,3.27h9c-.4-1.2-.81-2.4-1.24-3.61s-.83-2.38-1.21-3.5l-1.08-3.09c-.34-.95-.61-1.75-.82-2.42Z"/><path class="cls-1" d="M187.38,35.34a1.71,1.71,0,0,1-.5-1.28V11.62a3.48,3.48,0,0,1,.62-.18,3.71,3.71,0,0,1,.9-.1c1.17,0,1.76.49,1.76,1.47V33h11.46a1.8,1.8,0,0,1,.44,1.32,1.52,1.52,0,0,1-.36,1.07,1.22,1.22,0,0,1-1,.4h-12.1A1.77,1.77,0,0,1,187.38,35.34Z"/><path class="cls-2" d="M72,51.91a.55.55,0,0,1-.2.42.67.67,0,0,1-.46.17.61.61,0,0,1-.56-.38l-.87-2H65l-.88,2a.58.58,0,0,1-.23.28.61.61,0,0,1-.34.1.7.7,0,0,1-.47-.17.55.55,0,0,1-.2-.42.83.83,0,0,1,.06-.27l3.75-8.18a.69.69,0,0,1,.29-.34.85.85,0,0,1,.43-.12.86.86,0,0,1,.44.12.69.69,0,0,1,.29.34l3.75,8.18A.83.83,0,0,1,72,51.91ZM65.52,49h3.89l-2-4.39Z"/><path class="cls-2" d="M82.12,47.62a.51.51,0,0,1,.16.4v3.1a1.29,1.29,0,0,1-.13.65.84.84,0,0,1-.5.32,6,6,0,0,1-1.26.33,8.84,8.84,0,0,1-1.44.12A5,5,0,0,1,76.49,52a3.85,3.85,0,0,1-1.58-1.64,5.71,5.71,0,0,1-.54-2.58,5.57,5.57,0,0,1,.54-2.54,4,4,0,0,1,1.56-1.66A4.79,4.79,0,0,1,78.85,43a5.26,5.26,0,0,1,1.72.27,3.62,3.62,0,0,1,1.35.79.67.67,0,0,1,.26.53.6.6,0,0,1-.13.4.37.37,0,0,1-.32.17.46.46,0,0,1-.21,0L81.28,45a4.87,4.87,0,0,0-1.18-.67,3.51,3.51,0,0,0-1.22-.19,2.87,2.87,0,0,0-2.31.93,4.08,4.08,0,0,0-.79,2.71,4.11,4.11,0,0,0,.81,2.76,3,3,0,0,0,2.4.93,6.4,6.4,0,0,0,2-.32V48.51H79.29a.63.63,0,0,1-.42-.14.49.49,0,0,1-.15-.38.5.5,0,0,1,.15-.38.63.63,0,0,1,.42-.14h2.43A.54.54,0,0,1,82.12,47.62Z"/><path class="cls-2" d="M93.35,52a.5.5,0,0,1-.19.4.67.67,0,0,1-.44.17.69.69,0,0,1-.6-.33l-1.78-2.76a1.9,1.9,0,0,0-.65-.67,1.82,1.82,0,0,0-.9-.19h-1.5v3.23a.71.71,0,0,1-.18.51.67.67,0,0,1-.5.18.69.69,0,0,1-.49-.18.71.71,0,0,1-.18-.51V43.75a.62.62,0,0,1,.67-.67h3.31a3.6,3.6,0,0,1,2.37.69,2.52,2.52,0,0,1,.81,2,2.55,2.55,0,0,1-.62,1.78,2.93,2.93,0,0,1-1.78.87,1.64,1.64,0,0,1,.62.34,2.71,2.71,0,0,1,.55.66l1.36,2.15A.63.63,0,0,1,93.35,52Zm-3.59-4.49a2.39,2.39,0,0,0,1.53-.4,1.53,1.53,0,0,0,.5-1.25,1.51,1.51,0,0,0-.49-1.24,2.47,2.47,0,0,0-1.54-.4H87.28v3.29Z"/><path class="cls-2" d="M98.34,52a3.86,3.86,0,0,1-1.51-1.66,5.72,5.72,0,0,1-.53-2.53,5.79,5.79,0,0,1,.52-2.56,3.8,3.8,0,0,1,1.51-1.66,4.5,4.5,0,0,1,2.31-.57,4.56,4.56,0,0,1,2.32.57,3.84,3.84,0,0,1,1.5,1.66,6.35,6.35,0,0,1,0,5.08A3.87,3.87,0,0,1,103,52a4.47,4.47,0,0,1-2.32.58A4.37,4.37,0,0,1,98.34,52Zm4.49-1.49a4.18,4.18,0,0,0,.78-2.72,4.17,4.17,0,0,0-.78-2.71,2.68,2.68,0,0,0-2.19-.95,2.66,2.66,0,0,0-2.17.95,4.17,4.17,0,0,0-.78,2.71,4.18,4.18,0,0,0,.78,2.72,2.64,2.64,0,0,0,2.17,1A2.69,2.69,0,0,0,102.83,50.47Z"/><path class="cls-2" d="M108.62,52.32a.71.71,0,0,1-.18-.51v-8.1a.7.7,0,0,1,.18-.5.66.66,0,0,1,.49-.19.63.63,0,0,1,.69.69v8.1a.71.71,0,0,1-.18.51.67.67,0,0,1-.51.18A.69.69,0,0,1,108.62,52.32Z"/><path class="cls-2" d="M121.07,43.21a.7.7,0,0,1,.18.5v8.1a.7.7,0,0,1-.18.5.65.65,0,0,1-.48.19.61.61,0,0,1-.53-.26l-5.2-6.86v6.43a.7.7,0,0,1-.18.5.61.61,0,0,1-.47.19.63.63,0,0,1-.47-.18.75.75,0,0,1-.17-.51v-8.1a.66.66,0,0,1,.19-.5.67.67,0,0,1,1,.07L120,50.15V43.71a.69.69,0,0,1,.17-.5.58.58,0,0,1,.46-.19A.6.6,0,0,1,121.07,43.21Z"/><path class="cls-2" d="M125.2,52.26a.66.66,0,0,1-.18-.49v-8a.66.66,0,0,1,.18-.49.67.67,0,0,1,.5-.18h2.6a4.82,4.82,0,0,1,3.51,1.22,4.63,4.63,0,0,1,1.25,3.45,4.64,4.64,0,0,1-1.25,3.46,4.78,4.78,0,0,1-3.51,1.23h-2.6A.67.67,0,0,1,125.2,52.26Zm3-1c2.3,0,3.45-1.19,3.45-3.55s-1.15-3.53-3.45-3.53h-1.83V51.3Z"/><path class="cls-2" d="M137.41,51.57a3.83,3.83,0,0,1-1-2.85v-5a.67.67,0,0,1,.19-.51.66.66,0,0,1,.49-.18.67.67,0,0,1,.49.18.71.71,0,0,1,.18.51v5.1a2.77,2.77,0,0,0,.62,1.95,2.85,2.85,0,0,0,3.67,0,2.72,2.72,0,0,0,.62-1.95v-5.1a.7.7,0,0,1,.19-.5.64.64,0,0,1,.49-.19.67.67,0,0,1,.49.18.71.71,0,0,1,.19.51v5a4,4,0,0,1-6.65,2.85Z"/><path class="cls-2" d="M148.93,52.26a3.7,3.7,0,0,1-1.45-.77.66.66,0,0,1-.25-.54.6.6,0,0,1,.13-.4.41.41,0,0,1,.32-.17.94.94,0,0,1,.45.17,4.36,4.36,0,0,0,2.69.88,2.78,2.78,0,0,0,1.63-.4,1.33,1.33,0,0,0,.58-1.14,1,1,0,0,0-.54-.88,6.9,6.9,0,0,0-1.69-.55,9.4,9.4,0,0,1-1.83-.55,2.71,2.71,0,0,1-1.13-.83,2.17,2.17,0,0,1-.4-1.33,2.48,2.48,0,0,1,.44-1.44,2.91,2.91,0,0,1,1.24-1,4.41,4.41,0,0,1,1.82-.35,5.67,5.67,0,0,1,1.74.26A3.62,3.62,0,0,1,154,44a.68.68,0,0,1,.27.54.65.65,0,0,1-.14.4.42.42,0,0,1-.33.17.88.88,0,0,1-.43-.17,4.53,4.53,0,0,0-1.15-.67,3.56,3.56,0,0,0-1.29-.21,2.65,2.65,0,0,0-1.6.42,1.37,1.37,0,0,0-.57,1.16,1.05,1.05,0,0,0,.51,1,5.09,5.09,0,0,0,1.62.59,14.57,14.57,0,0,1,1.89.55,2.85,2.85,0,0,1,1.15.79,1.85,1.85,0,0,1,.43,1.28,2.38,2.38,0,0,1-.44,1.41,2.82,2.82,0,0,1-1.25,1,4.66,4.66,0,0,1-1.85.34A6.42,6.42,0,0,1,148.93,52.26Z"/><path class="cls-2" d="M159.89,52.31a.66.66,0,0,1-.19-.5V44.22H157q-.63,0-.63-.57a.54.54,0,0,1,.16-.42.68.68,0,0,1,.47-.15h6.69a.68.68,0,0,1,.47.15.54.54,0,0,1,.17.42c0,.38-.21.57-.64.57h-2.65v7.59a.66.66,0,0,1-.19.5.65.65,0,0,1-.5.19A.66.66,0,0,1,159.89,52.31Z"/><path class="cls-2" d="M174.5,52a.5.5,0,0,1-.19.4.67.67,0,0,1-.44.17.69.69,0,0,1-.6-.33l-1.78-2.76a1.9,1.9,0,0,0-.65-.67,1.82,1.82,0,0,0-.9-.19h-1.5v3.23a.71.71,0,0,1-.18.51.67.67,0,0,1-.5.18.69.69,0,0,1-.49-.18.71.71,0,0,1-.18-.51V43.75a.62.62,0,0,1,.67-.67h3.31a3.55,3.55,0,0,1,2.36.69,2.49,2.49,0,0,1,.82,2,2.55,2.55,0,0,1-.62,1.78,2.93,2.93,0,0,1-1.78.87,1.64,1.64,0,0,1,.62.34,2.71,2.71,0,0,1,.55.66l1.36,2.15A.63.63,0,0,1,174.5,52Zm-3.59-4.49a2.39,2.39,0,0,0,1.53-.4,1.53,1.53,0,0,0,.5-1.25,1.51,1.51,0,0,0-.49-1.24,2.47,2.47,0,0,0-1.54-.4h-2.48v3.29Z"/><path class="cls-2" d="M178,52.32a.67.67,0,0,1-.19-.51v-8.1a.66.66,0,0,1,.19-.5.64.64,0,0,1,.49-.19.68.68,0,0,1,.5.18.67.67,0,0,1,.19.51v8.1a.71.71,0,0,1-.18.51.69.69,0,0,1-.51.18A.67.67,0,0,1,178,52.32Z"/><path class="cls-2" d="M191.28,51.91a.52.52,0,0,1-.2.42.67.67,0,0,1-.46.17.55.55,0,0,1-.32-.1.6.6,0,0,1-.24-.28l-.87-2h-4.86l-.87,2a.67.67,0,0,1-.24.28.6.6,0,0,1-.33.1.67.67,0,0,1-.47-.17.53.53,0,0,1-.21-.42.67.67,0,0,1,.07-.27L186,43.46a.66.66,0,0,1,.3-.34.82.82,0,0,1,.43-.12.85.85,0,0,1,.43.12.66.66,0,0,1,.3.34l3.74,8.18A.83.83,0,0,1,191.28,51.91ZM184.82,49h3.89l-2-4.39Z"/><path class="cls-2" d="M194.47,52.26a.6.6,0,0,1-.17-.46V43.71a.7.7,0,0,1,.18-.5A.64.64,0,0,1,195,43a.72.72,0,0,1,.51.18.71.71,0,0,1,.18.51V51.3h4a.71.71,0,0,1,.48.14.54.54,0,0,1,.16.43.54.54,0,0,1-.16.42.71.71,0,0,1-.48.15H195A.67.67,0,0,1,194.47,52.26Z"/><path class="cls-2" d="M61.33,30.29a17.38,17.38,0,0,0-5.83-5.21,15.54,15.54,0,0,0-14.82,0,17.47,17.47,0,0,0-1.82,1.16,5.62,5.62,0,0,1,0,1.73,15.46,15.46,0,0,1,2.5-1.69,14.07,14.07,0,0,1,13.52,0,15.8,15.8,0,0,1,4.61,3.8H53.41a.68.68,0,0,0,0,1.35h6.05a15.52,15.52,0,0,1-3.37,3.06,14.07,14.07,0,0,1-4.86,2.11,11.86,11.86,0,0,0-1.07-2.21,11.25,11.25,0,0,0-3.54-3.63,11.54,11.54,0,0,0,2.25-1.91,11.68,11.68,0,0,0,2-3,.67.67,0,1,0-1.22-.57,10.62,10.62,0,0,1-1.74,2.61,9.69,9.69,0,0,1-2.4,1.94l0,0a10,10,0,0,1-4.73,1.31,10.6,10.6,0,0,1-2.85-.31,11.84,11.84,0,0,1-.7,1.22,12.16,12.16,0,0,0,3.59.45,11.61,11.61,0,0,0,4.5-1.05h0l.21.12,0,0A10.12,10.12,0,0,1,49,35.09a11.43,11.43,0,0,1,1.55,4.44c-.28.12-.57.23-.85.32a10.69,10.69,0,0,1-1.07.3,13.63,13.63,0,0,0-2.5-3.44,12.33,12.33,0,0,0-1.15-1,13.23,13.23,0,0,0-1.26-.9.69.69,0,0,0-.94.22A.68.68,0,0,0,43,36a12.34,12.34,0,0,1,1.14.8,11.09,11.09,0,0,1,1,.93,12.24,12.24,0,0,1,3.08,5.17,13.58,13.58,0,0,1,.41,5.82,14,14,0,0,1-3.6,0,13,13,0,0,1-3.41-.88,11.73,11.73,0,0,0-1.41-7.34,7.39,7.39,0,0,0-.42-.66l.66.41h0a10.94,10.94,0,0,0,2.71,1.12,11.13,11.13,0,0,0,2.93.4.68.68,0,1,0,0-1.36,10.41,10.41,0,0,1-2.59-.34,10.54,10.54,0,0,1-2.39-1,10,10,0,0,1-3.54-3.45,10.6,10.6,0,0,1-1.13-2.55,24.44,24.44,0,0,1-4.28,4.35,15.82,15.82,0,0,1,3,3.91,14.14,14.14,0,0,1,0,13.52,15.89,15.89,0,0,1-3.81,4.61V53.41a.68.68,0,0,0-1.35,0v6.05a15.68,15.68,0,0,1-3-3.37,14.37,14.37,0,0,1-2.12-4.86,12,12,0,0,0,2.22-1.07,11.46,11.46,0,0,0,3.63-3.54,11.21,11.21,0,0,0,1.91,2.25,11.81,11.81,0,0,0,2.95,2,.67.67,0,1,0,.57-1.22,10.62,10.62,0,0,1-2.61-1.74,9.69,9.69,0,0,1-1.94-2.4l0,0A10.15,10.15,0,0,1,30.3,40.7a10.92,10.92,0,0,1,.17-2.21c-.41-.31-.81-.61-1.19-.92a12.18,12.18,0,0,0-.34,3.17A11.45,11.45,0,0,0,30,45.24h0l-.12.21,0,0A10.12,10.12,0,0,1,26.42,49,11.27,11.27,0,0,1,22,50.56c-.12-.28-.23-.57-.32-.85s-.21-.71-.29-1.08a13.3,13.3,0,0,0,3.43-2.49,14.08,14.08,0,0,0,1-1.15q.48-.62.9-1.26a.69.69,0,0,0-.22-.94.68.68,0,0,0-.94.22c-.24.39-.52.77-.8,1.14a11.09,11.09,0,0,1-.93,1,12.33,12.33,0,0,1-5.18,3.08,13.58,13.58,0,0,1-5.82.41,14.48,14.48,0,0,1-.05-3.6,13.37,13.37,0,0,1,.88-3.41,11.59,11.59,0,0,0,1.95.1A11.42,11.42,0,0,0,21,40.25l.66-.42q-.22.33-.42.66h0a11.33,11.33,0,0,0-1.12,2.71,11.12,11.12,0,0,0-.39,2.93.68.68,0,1,0,1.35,0,10.09,10.09,0,0,1,1.34-5h0a10,10,0,0,1,3.46-3.54,10.43,10.43,0,0,1,2.22-1,20.72,20.72,0,0,1-3.91-4.51,15.86,15.86,0,0,1-4,3.15,14.14,14.14,0,0,1-13.52,0,16,16,0,0,1-4.61-3.81H8.1a.68.68,0,1,0,0-1.35h-6A16,16,0,0,1,5.43,27a14.7,14.7,0,0,1,4.85-2.11,12,12,0,0,0,1.08,2.22,11.45,11.45,0,0,0,3.54,3.63,11,11,0,0,0-2.26,1.91,11.81,11.81,0,0,0-2,2.95.69.69,0,0,0,.32.91.7.7,0,0,0,.91-.34,10.31,10.31,0,0,1,1.73-2.61,9.69,9.69,0,0,1,2.4-1.94l0,0a10.18,10.18,0,0,1,4.73-1.32,11.15,11.15,0,0,1,2.57.25,9.73,9.73,0,0,1-.52-1.48,12.16,12.16,0,0,0-2.09-.13A11.49,11.49,0,0,0,16.27,30h0c-.08,0-.16-.08-.21-.12a10,10,0,0,1-3.55-3.45A11.41,11.41,0,0,1,11,22c.28-.12.56-.23.84-.32s.72-.21,1.08-.29a13.3,13.3,0,0,0,2.49,3.43c.36.36.75.71,1.15,1s.84.61,1.26.89a.69.69,0,0,0,.94-.22.68.68,0,0,0-.22-.94c-.39-.24-.76-.52-1.13-.8a11.18,11.18,0,0,1-1-.93,12.33,12.33,0,0,1-3.08-5.18,13.58,13.58,0,0,1-.41-5.82,14.48,14.48,0,0,1,3.6-.05,13.37,13.37,0,0,1,3.41.88,11.59,11.59,0,0,0-.1,1.95A11.42,11.42,0,0,0,21.26,21q.19.33.42.66c-.22-.15-.44-.28-.66-.42a11.4,11.4,0,0,0-2.72-1.12,11.12,11.12,0,0,0-2.93-.39.68.68,0,1,0,0,1.35,10.09,10.09,0,0,1,5,1.34h0a9.72,9.72,0,0,1,2.82,2.43A3.59,3.59,0,0,1,25,23.25a10.21,10.21,0,0,1-2.55-2.91,10.06,10.06,0,0,1-1.34-4.76A11.27,11.27,0,0,1,22,11l.27,0h.08l.07,0h.07A.67.67,0,1,0,22.7,9.7l-.06,0h-.1l-.09,0L22,9.6l-.38,0a.67.67,0,0,0-.72.38,13.09,13.09,0,0,0-.83,2.37,14.55,14.55,0,0,0-3.51-.87,15.55,15.55,0,0,0-4.46.13.66.66,0,0,0-.56.56A15.09,15.09,0,0,0,12,19.05c.11.35.23.71.36,1.06-.31.07-.62.16-.92.26a15,15,0,0,0-1.45.57h0a.66.66,0,0,0-.39.67,12.17,12.17,0,0,0,.34,2A15.46,15.46,0,0,0,4.67,25.9,17.34,17.34,0,0,0,.15,30.34a.67.67,0,0,0-.15.42.75.75,0,0,0,.1.36h0l0,0A17.09,17.09,0,0,0,6,36.43a15.45,15.45,0,0,0,14.81,0A17,17,0,0,0,25,33.28a11,11,0,0,1-1.08,2.34,10,10,0,0,1-8.3,4.79A11.26,11.26,0,0,1,11,39.54c0-.13,0-.22,0-.27v-.09l0-.07V39a.67.67,0,1,0-1.33-.23l0,.07V39h0l0,.09a3.11,3.11,0,0,0-.05.41c0,.09,0,.21,0,.38a.66.66,0,0,0,.38.72,12.87,12.87,0,0,0,2.37.84,14.47,14.47,0,0,0-.87,3.5,15.54,15.54,0,0,0,.13,4.46.68.68,0,0,0,.56.57,15.22,15.22,0,0,0,6.92-.38c.36-.11.71-.23,1.06-.36.07.31.16.62.26.92a14.08,14.08,0,0,0,.57,1.45h0a.66.66,0,0,0,.67.39,13.33,13.33,0,0,0,2-.33,15.64,15.64,0,0,0,2.29,5.22,17.49,17.49,0,0,0,4.42,4.5.66.66,0,0,0,.44.16.72.72,0,0,0,.43-.15,17.2,17.2,0,0,0,5.24-5.87,15.45,15.45,0,0,0,0-14.81,16.9,16.9,0,0,0-3.15-4.12,10.33,10.33,0,0,1,2.34,1.07,10,10,0,0,1,4.79,8.31,11.21,11.21,0,0,1-.87,4.61l-.27,0h-.09l-.07,0H39a.68.68,0,0,0-.23,1.34H39l.09,0,.41.06.38,0a.67.67,0,0,0,.72-.39,12.87,12.87,0,0,0,.84-2.37,14,14,0,0,0,3.5.87,15.54,15.54,0,0,0,4.46-.13.68.68,0,0,0,.57-.56,15.22,15.22,0,0,0-.38-6.92q-.16-.52-.36-1.05c.31-.08.62-.17.92-.27a12.12,12.12,0,0,0,1.45-.57.68.68,0,0,0,.39-.68,13.2,13.2,0,0,0-.33-2,15.77,15.77,0,0,0,5.22-2.3,17.26,17.26,0,0,0,4.49-4.41.62.62,0,0,0,.17-.44A.7.7,0,0,0,61.33,30.29Z"/><path class="cls-2" d="M25.08,20.83A17.21,17.21,0,0,0,26.46,23c3.08,0,4.2,4,4.2,4a8.5,8.5,0,0,1,1.42-2.47,12.59,12.59,0,0,0,.49-3.75,11.49,11.49,0,0,0-1.06-4.5h0l.12-.21a10.21,10.21,0,0,1,3.45-3.55A11.41,11.41,0,0,1,39.53,11c.12.28.23.56.32.84s.21.72.3,1.08a13.35,13.35,0,0,0-3.44,2.49,12.33,12.33,0,0,0-1,1.15,14.64,14.64,0,0,0-.9,1.26A.68.68,0,0,0,36,18.5a10.57,10.57,0,0,1,.8-1.13,11.18,11.18,0,0,1,.93-1,12.21,12.21,0,0,1,5.18-3.08,13.52,13.52,0,0,1,5.81-.41,14,14,0,0,1,0,3.6,13,13,0,0,1-.88,3.41,11.73,11.73,0,0,0-7.34,1.41c-.23.14-.45.27-.66.42.14-.21.28-.43.41-.66a11,11,0,0,0,1.12-2.72,11.13,11.13,0,0,0,.4-2.93.68.68,0,0,0-1.36,0,10,10,0,0,1-3.78,7.81,3.49,3.49,0,0,1,1.78,1.63,10.07,10.07,0,0,1,7.53-3.7,11.06,11.06,0,0,1,4.61.88c0,.12,0,.21,0,.27v.08l0,.07v.07a.68.68,0,0,0,.55.79.67.67,0,0,0,.78-.56l0-.06h0v-.08h0l0-.09c0-.18,0-.32.06-.41s0-.21,0-.38a.68.68,0,0,0-.39-.72,12.83,12.83,0,0,0-2.37-.83,14.55,14.55,0,0,0,.87-3.51,15.55,15.55,0,0,0-.13-4.46.66.66,0,0,0-.56-.56,15.09,15.09,0,0,0-6.92.37l-1.05.36c-.08-.31-.17-.62-.27-.92a12.82,12.82,0,0,0-.57-1.45.68.68,0,0,0-.68-.39,13,13,0,0,0-2,.33,15.72,15.72,0,0,0-2.3-5.21A17.14,17.14,0,0,0,31.18.15.67.67,0,0,0,30.76,0a.66.66,0,0,0-.45.17A17.31,17.31,0,0,0,25.08,6a15.52,15.52,0,0,0,0,14.81Zm1.2-14.17a15.8,15.8,0,0,1,3.8-4.61V8.1a.68.68,0,1,0,1.35,0v-6a15.57,15.57,0,0,1,3.06,3.38,14.3,14.3,0,0,1,2.11,4.85,12.56,12.56,0,0,0-2.21,1.08,11.25,11.25,0,0,0-3.63,3.54,11.32,11.32,0,0,0-1.91-2.26,11.68,11.68,0,0,0-3-2A.67.67,0,0,0,25,11a.68.68,0,0,0,.33.91,10.31,10.31,0,0,1,2.61,1.73,9.69,9.69,0,0,1,1.94,2.4l0,0a10.05,10.05,0,0,1,1.31,4.73,11.19,11.19,0,0,1-.74,4.29,15.52,15.52,0,0,1-4.19-4.92,14.07,14.07,0,0,1,0-13.52Z"/><path class="cls-2" d="M30.66,39.29a.7.7,0,0,1-.39-.13c-6-4.35-9.07-9.31-8.19-13.26a4.41,4.41,0,0,1,3.54-3.52c2.54-.49,4.21,1.27,5.08,2.95,1-1.7,2.77-3.51,5.32-3h0a4.27,4.27,0,0,1,3.42,3.39c.68,3.07-1.16,8.22-8.4,13.46A.67.67,0,0,1,30.66,39.29ZM26.45,23.62a3.07,3.07,0,0,0-.59.05,3.12,3.12,0,0,0-2.5,2.51c-.57,2.59,1.06,7,7.3,11.63,6.39-4.76,8.07-9.21,7.49-11.82a3,3,0,0,0-2.38-2.39h0c-3-.57-4.47,3.56-4.49,3.6a.64.64,0,0,1-.64.44.65.65,0,0,1-.62-.48C30,27,29,23.62,26.45,23.62Z"/></g></g></svg>